<svg xmlns="http://www.w3.org/2000/svg" xmlns:xlink="http://www.w3.org/1999/xlink" height="200" width="600"><style>path,circle,rect{fill:none;stroke:black;}#a{overflow:visible;}.h{fill:black;stroke:none;}path.a{marker-end:url(#a);}text{font-size:12px;font-family:DejaVu Sans;text-align:center;text-anchor:middle;}path.a{marker-end:url(#a);}#t{font-size:16px;}@media(prefers-color-scheme:dark){path,circle,rect{stroke:white;}text,.h{fill:white;}}</style><defs><marker id="a" orient="auto"><path d="M0,0L-2,-2L6,0L-2,2z" class="h"/></marker><path id="b" d="M-40,0h80v8h-80Zm8,0v8m8,-8v8m8,-8v8m8,-8v8m8,-8v8m8,-8v8m8,-8v8m8,-8v8m8,-8v8"/><g id="c"><text y="20">Ciphertext</text><use xlink:href="#b" y="25"/><path d="M0,35v8" class="a"/><path d="M-5,55h10zM0,50v10"/><circle cy="55" r="5"/><path d="M0,61v2" class="a"/><rect x="-40" y="70" width="80" height="32"/><text y="84">Block Cipher</text><text y="97">Decryption</text><path d="M-65,86h18" class="a"/><text x="-80" y="89">Key</text><path d="M0,104v4" class="a"/><path d="M-5,120h10zM0,115v10"/><circle cy="120" r="5"/><path d="M0,127v6" class="a"/><use xlink:href="#b" y="140"/><text y="160">Plaintext</text></g><g id="l"><path d="M0,38h70v14a3,3,0,1,1,0,6v62h98" class="a"/><path d="M0,129h55v-74h113" class="a"/></g></defs><text x="300" y="185" id="t">Infinite Garble Extension (IGE) mode decryption</text><text x="50" y="33">Initialization</text><text x="50" y="45">Vector 2 (IV2)</text><use xlink:href="#b" x="50" y="51"/><path class="a" d="M92,55h36"/><text x="50" y="137">Initialization</text><text x="50" y="149">Vector 1 (IV1)</text><use xlink:href="#b" x="50" y="116"/><path class="a" d="M92,120h36"/><use xlink:href="#c" x="140"/><use xlink:href="#l" x="140"/><use xlink:href="#c" x="320"/><use xlink:href="#l" x="320"/><use xlink:href="#c" x="500"/></svg>