<svg xmlns="http://www.w3.org/2000/svg" xmlns:xlink="http://www.w3.org/1999/xlink" height="200" width="600"><style>path,circle,rect{fill:none;stroke:black;}#a{overflow:visible;}.h{fill:black;stroke:none;}path.a{marker-end:url(#a);}text{font-size:12px;font-family:DejaVu Sans;text-align:center;text-anchor:middle;}path.a{marker-end:url(#a);}#t{font-size:16px;}@media(prefers-color-scheme:dark){path,circle,rect{stroke:white;}text,.h{fill:white;}}</style><defs><marker id="a" orient="auto"><path d="M0,0L-2,-2L6,0L-2,2z" class="h"/></marker><path id="b" d="M-40,0h80v8h-80Zm8,0v8m8,-8v8m8,-8v8m8,-8v8m8,-8v8m8,-8v8m8,-8v8m8,-8v8m8,-8v8"/><g id="c"><text x="-90" y="115">Plaintext</text><use xlink:href="#b" x="-90" y="120"/><path d="M-48,124h36" class="a"/><path d="M-5,124h10zM0,119v10"/><circle cy="124" r="5"/><rect x="-40" y="60" width="80" height="32"/><text y="74">Block Cipher</text><text y="87">Encryption</text><path d="M0,94v18" class="a"/><path d="M-65,76h18" class="a" /><text x="-80" y="79">Key</text><path d="M0,130v3" class="a"/><use xlink:href="#b" y="140"/><text y="160">Ciphertext</text></g><path id="l" class="a" d="M0,105h55v-71h125v19"/></defs><text x="300" y="185" id="t">Output Feedback (OFB) mode encryption</text><text x="140" y="13">Initialization</text><text x="140" y="25">Vector (IV)</text><use xlink:href="#b" x="140" y="30"/><path class="a" d="M140,40v13"/><use xlink:href="#c" x="140"/><use xlink:href="#l" x="140"/><use xlink:href="#c" x="320"/><use xlink:href="#l" x="320"/><use xlink:href="#c" x="500"/></svg>