<svg xmlns="http://www.w3.org/2000/svg" viewBox="0 0 570 345"><defs><style>.a,.d{fill:#fff;}.b,.c,.i{fill:none;}.b,.c,.d,.e,.f,.g,.h,.i{stroke:#000;}.b,.d,.e,.f,.g,.h,.i{stroke-miterlimit:10;}.b,.c,.f{stroke-width:2px;}.c{stroke-linecap:round;stroke-linejoin:round;}.d,.e{stroke-width:2.03px;}.e{fill:lime;}.f{fill:aqua;}.g{fill:#fc0;stroke-width:1.98px;}.h,.i{stroke-width:1.9px;}</style></defs><rect class="a" width="570" height="345"/><line class="b" x1="120.48" y1="43.44" x2="414.78" y2="82.5"/><line class="b" x1="138.63" y1="43.52" x2="334.43" y2="82.5"/><line class="b" x1="156.42" y1="43.44" x2="254.83" y2="82.68"/><line class="b" x1="200.5" y1="37.68" x2="200.5" y2="83.01"/><line class="b" x1="218.14" y1="43.55" x2="120.48" y2="82.57"/><line class="b" x1="236.67" y1="43.5" x2="432.85" y2="82.57"/><line class="b" x1="254.27" y1="43.33" x2="352.71" y2="82.68"/><line class="b" x1="298.5" y1="41.56" x2="298.5" y2="84.23"/><line class="b" x1="316.79" y1="43.33" x2="218.14" y2="82.68"/><line class="b" x1="334.64" y1="43.44" x2="138.33" y2="82.68"/><line class="b" x1="352.48" y1="43.44" x2="450.7" y2="82.57"/><line class="b" x1="396.5" y1="43.69" x2="396.5" y2="82.59"/><line class="b" x1="414.89" y1="43.33" x2="316.35" y2="82.57"/><line class="b" x1="432.63" y1="43.44" x2="236.43" y2="82.57"/><line class="b" x1="450.47" y1="43.66" x2="156.06" y2="82.59"/><path class="c" d="M129,158l-26.5,26.5c0,28.67.07,56.83-.07,85,0,5.29.78,6.14,6.07,6.07,14.16-.2,28.34-.22,42.5,0,4.4.08,5.68-1.19,5.59-5.59-.26-12.33-.09-24.67-.09-37.5L180,209" transform="translate(0 0)"/><path class="c" d="M240,170l-26.5,26.5c0,24.67.08,48.83-.07,73,0,5.29.78,6.14,6.07,6.07,14.16-.2,28.34-.22,42.5,0,4.4.08,5.75-1.19,5.59-5.59-.31-8.33-.09-16.67-.09-25.5L291,221" transform="translate(0 0)"/><path class="c" d="M453.5,303.5l1.46-1.75H449.5c0-2.9-.15-5.58,0-8.25.27-3.76-1.29-5.09-5-5.06-14.83.14-29.67.06-44.5.06H353.5" transform="translate(0 0)"/><path class="c" d="M351,182l-26.5,26.5c0,20.83.11,41.17-.09,61.5,0,4.39,1.19,5.67,5.59,5.59q21.5-.36,43,0c4.4.08,5.91-1.18,5.57-5.6s-.07-8.66-.07-13.49L402,233" transform="translate(0 0)"/><path class="c" d="M238.5,282.5h-107" transform="translate(0 0)"/><path class="c" d="M146,175l-25.5,25.5c0,23.33,0,46.17,0,69a27.55,27.55,0,0,0,1,5" transform="translate(0 0)"/><path class="c" d="M102.5,37.5v77l33,33" transform="translate(0 0)"/><path class="c" d="M462,194l-26.5,26.5c0,16.83.14,33.17-.09,49.5-.06,4.4,1.19,5.67,5.59,5.59,14-.25,28-.09,42-.09,6.5,0,6.5,0,6.5-7L513,245" transform="translate(0 0)"/><path class="c" d="M238.5,288.5h-107" transform="translate(0 0)"/><path class="c" d="M396.5,82.5v29l72,72" transform="translate(0 0)"/><path class="c" d="M257,187l-25.5,25.5c0,19.33,0,38.17,0,57a27.55,27.55,0,0,0,1,5" transform="translate(0 0)"/><path class="c" d="M163,192l-24.5,24.5c0,18,0,35.5,0,53a33,33,0,0,1-1,5.5" transform="translate(0 0)"/><path class="c" d="M298.5,82.5v30l59,59" transform="translate(0 0)"/><path class="c" d="M414.5,82.5v21l67,67" transform="translate(0 0)"/><path class="c" d="M368,199l-25.5,25.5c0,15.33,0,30.17,0,45a27.55,27.55,0,0,0,1,5" transform="translate(0 0)"/><path class="c" d="M274,204l-24.5,24.5c0,14,0,27.5,0,41a33.89,33.89,0,0,1-1,5.5" transform="translate(0 0)"/><path class="c" d="M200.5,82.5v31l46,46" transform="translate(0 0)"/><path class="c" d="M316.5,82.5v22l54,54" transform="translate(0 0)"/><path class="c" d="M432.5,82.5v13l62,62" transform="translate(0 0)"/><path class="c" d="M479,211l-25.5,25.5c0,11.33,0,22.17,0,33a28.44,28.44,0,0,0,1,5" transform="translate(0 0)"/><path class="c" d="M385,216l-24.5,24.5c0,10.17.05,19.83,0,29.5a28.44,28.44,0,0,1-1,5" transform="translate(0 0)"/><path class="c" d="M295.5,288v-5.5h-53" transform="translate(0 0)"/><path class="c" d="M127.5,282.5h-53" transform="translate(0 0)"/><path class="c" d="M218.5,82.5v23l41,41" transform="translate(0 0)"/><path class="c" d="M349.5,288.5h-107" transform="translate(0 0)"/><path class="c" d="M334.5,82.5v14l49,49" transform="translate(0 0)"/><path class="c" d="M450.5,82.5v4L548,184l-6.5,6.5,3,3" transform="translate(0 0)"/><path class="c" d="M496,228l-24.5,24.5c0,6.17.07,11.83-.05,17.5a29.35,29.35,0,0,1-.95,5" transform="translate(0 0)"/><path class="c" d="M120.5,82.5v24l28,28" transform="translate(0 0)"/><path class="c" d="M236.5,82.5v15l36,36" transform="translate(0 0)"/><path class="c" d="M352.5,82.5v5L437,172l-6.5,6.5,3,3" transform="translate(0 0)"/><path class="c" d="M489,322.5h-6.25v4.75h13.5V322.5H490" transform="translate(0 0)"/><path class="c" d="M471,322.5h-6.25v4.75h13.5V322.5H472" transform="translate(0 0)"/><path class="c" d="M453,322.5h-6.25v4.75h13.5V322.5H454" transform="translate(0 0)"/><path class="c" d="M435,322.5h-6.25v4.75h13.5V322.5H436" transform="translate(0 0)"/><path class="c" d="M378,322.5h-6.25v4.75h13.5V322.5H379" transform="translate(0 0)"/><path class="c" d="M360,322.5h-6.25v4.75h13.5V322.5H361" transform="translate(0 0)"/><path class="c" d="M342,322.5h-6.25v4.75h13.5V322.5H343" transform="translate(0 0)"/><path class="c" d="M324,322.5h-6.25v4.75h13.5V322.5H325" transform="translate(0 0)"/><path class="c" d="M267,322.5h-6.25v4.75h13.5V322.5H268" transform="translate(0 0)"/><path class="c" d="M249,322.5h-6.25v4.75h13.5V322.5H250" transform="translate(0 0)"/><path class="c" d="M231,322.5h-6.25v4.75h13.5V322.5H232" transform="translate(0 0)"/><path class="c" d="M213,322.5h-6.25v4.75h13.5V322.5H214" transform="translate(0 0)"/><path class="c" d="M156,322.5h-6.25v4.75h13.5V322.5H157" transform="translate(0 0)"/><path class="c" d="M138,322.5h-6.25v4.75h13.5V322.5H139" transform="translate(0 0)"/><path class="c" d="M120,322.5h-6.25v4.75h13.5V322.5H121" transform="translate(0 0)"/><path class="c" d="M102,322.5H95.75v4.75h13.5V322.5H103" transform="translate(0 0)"/><path class="c" d="M138.5,82.5v16l23,23" transform="translate(0 0)"/><path class="c" d="M254.5,82.5v6L326,160l-6.5,6.5,3,3" transform="translate(0 0)"/><path class="c" d="M489.5,322c0-10.5,1-9.51-9.5-9.5-12.5,0-25,.1-37.5,0-6.87-.07-7.29.18-7,7,0,.83,0,1.67,0,2.5" transform="translate(0 0)"/><path class="c" d="M378.5,322c0-10.5,1-9.51-9.5-9.5-12.5,0-25,.1-37.5,0-6.87-.07-7.29.18-7,7,0,.83,0,1.67,0,2.5" transform="translate(0 0)"/><path class="c" d="M267.5,322c0-10.5,1-9.51-9.5-9.5-12.5,0-25,.1-37.5,0-6.87-.07-7.29.18-7,7,0,.83,0,1.67,0,2.5" transform="translate(0 0)"/><path class="c" d="M156.5,322c0-10.5,1-9.51-9.5-9.5-12.5,0-25,.1-37.5,0-6.87-.07-7.29.18-7,7,0,.83,0,1.67,0,2.5" transform="translate(0 0)"/><path class="c" d="M127.5,288.5c-11,0-11,0-11,11v2h5.67l-1.67,2" transform="translate(0 0)"/><path class="c" d="M156.5,82.5v7L215,148l-6.5,6.5,3,3" transform="translate(0 0)"/><path class="c" d="M120,24.5h-5.25v12h11.5v-12H121" transform="translate(0 0)"/><path class="c" d="M298,24.5h-5.25v12h11.5v-12H299" transform="translate(0 0)"/><path class="c" d="M352,24.5h-5.25v12h11.5v-12H353" transform="translate(0 0)"/><path class="c" d="M138,24.5h-5.25v12h11.5v-12H139" transform="translate(0 0)"/><path class="c" d="M102,24.5H96.75v12h11.5v-12H103" transform="translate(0 0)"/><path class="c" d="M396,24.5h-5.25v12h11.5v-12H397" transform="translate(0 0)"/><path class="c" d="M156,24.5h-5.25v12h11.5v-12H157" transform="translate(0 0)"/><path class="c" d="M414,24.5h-5.25v12h11.5v-12H415" transform="translate(0 0)"/><path class="c" d="M200,24.5h-5.25v12h11.5v-12H201" transform="translate(0 0)"/><path class="c" d="M432,24.5h-5.25v12h11.5v-12H433" transform="translate(0 0)"/><path class="c" d="M218,24.5h-5.25v12h11.5v-12H219" transform="translate(0 0)"/><path class="c" d="M450,24.5h-5.25v12h11.5v-12H451" transform="translate(0 0)"/><path class="c" d="M236,24.5h-5.25v12h11.5v-12H237" transform="translate(0 0)"/><path class="c" d="M334,24.5h-5.25v12h11.5v-12H335" transform="translate(0 0)"/><path class="c" d="M254,24.5h-5.25v12h11.5v-12H255" transform="translate(0 0)"/><path class="c" d="M316,24.5h-5.25v12h11.5v-12H317" transform="translate(0 0)"/><path class="c" d="M351.5,276.5V296" transform="translate(0 0)"/><path class="c" d="M129.5,276.5V296" transform="translate(0 0)"/><path class="c" d="M240.5,276.5V296" transform="translate(0 0)"/><path class="c" d="M462.5,276.5V296" transform="translate(0 0)"/><path class="c" d="M228.5,289.5c-.48,3.82-1,7.63-1.52,12h6.19l-1.67,2" transform="translate(0 0)"/><path class="c" d="M337.5,289.5c.48,3.82,1,7.63,1.52,12h5.15l-1.67,2" transform="translate(0 0)"/><path class="c" d="M217,163l4.5,4.5-11,11" transform="translate(0 0)"/><path class="c" d="M311,158l4.5,4.5-11,11" transform="translate(0 0)"/><path class="c" d="M422,170l4.5,4.5-11,11" transform="translate(0 0)"/><path class="c" d="M439,187l4.5,4.5-11,11" transform="translate(0 0)"/><path class="c" d="M328,175l4.5,4.5-11,11" transform="translate(0 0)"/><path class="c" d="M200,146l4.5,4.5-11,11" transform="translate(0 0)"/><path class="c" d="M550,199l4.5,4.5-11,11" transform="translate(0 0)"/><path class="c" d="M533,182l4.5,4.5-11,11" transform="translate(0 0)"/><path class="c" d="M129,296.5c-4.63,2.24-5.93,5.17-3.49,8,2,2.34,4.26,3.38,7,1s2.86-5,.46-7.46a11.06,11.06,0,0,0-3-1.54" transform="translate(0 0)"/><path class="c" d="M240,296.5c-4.63,2.24-5.93,5.17-3.49,8,2,2.34,4.26,3.38,7,1s2.86-5,.46-7.46a11.06,11.06,0,0,0-3-1.54" transform="translate(0 0)"/><path class="c" d="M351,296.5c-4.63,2.24-5.93,5.17-3.49,8,2,2.34,4.26,3.38,7,1s2.86-5,.46-7.46a11.06,11.06,0,0,0-3-1.54" transform="translate(0 0)"/><path class="c" d="M462,296.5c-4.63,2.24-5.93,5.17-3.49,8,2,2.34,4.26,3.38,7,1s2.86-5,.46-7.46a11.06,11.06,0,0,0-3-1.54" transform="translate(0 0)"/><path class="c" d="M506,232l3.5-3.5,5,5-8,8-5-5L505,233" transform="translate(0 0)"/><path class="c" d="M169,166l3.5-3.5,5,5-8,8-5-5L168,167" transform="translate(0 0)"/><path class="c" d="M472,198l3.5-3.5,5,5-8,8-5-5L471,199" transform="translate(0 0)"/><path class="c" d="M306,152l3.5-3.5,5,5-8,8-5-5L305,153" transform="translate(0 0)"/><path class="c" d="M293,165l3.5-3.5,5,5-8,8-5-5L292,166" transform="translate(0 0)"/><path class="c" d="M195,140l3.5-3.5,5,5-8,8-5-5L194,141" transform="translate(0 0)"/><path class="c" d="M545,193l3.5-3.5,5,5-8,8-5-5L544,194" transform="translate(0 0)"/><path class="c" d="M361,186l3.5-3.5,5,5-8,8-5-5L360,187" transform="translate(0 0)"/><path class="c" d="M468,168l3.5-3.5,5,5-8,8-5-5L467,169" transform="translate(0 0)"/><path class="c" d="M417,164l3.5-3.5,5,5-8,8-5-5L416,165" transform="translate(0 0)"/><path class="c" d="M323,169l3.5-3.5,5,5-8,8-5-5L322,170" transform="translate(0 0)"/><path class="c" d="M344,169l3.5-3.5,5,5-8,8-5-5L343,170" transform="translate(0 0)"/><path class="c" d="M395,220l3.5-3.5,5,5-8,8-5-5L394,221" transform="translate(0 0)"/><path class="c" d="M485,185l3.5-3.5,5,5-8,8-5-5L484,186" transform="translate(0 0)"/><path class="c" d="M494,142l3.5-3.5,5,5-8,8-5-5L493,143" transform="translate(0 0)"/><path class="c" d="M139,162l3.5-3.5,5,5-8,8-5-5L138,163" transform="translate(0 0)"/><path class="c" d="M515,189l3.5-3.5,5,5-8,8-5-5L514,190" transform="translate(0 0)"/><path class="c" d="M199,170l3.5-3.5,5,5-8,8-5-5L198,171" transform="translate(0 0)"/><path class="c" d="M370,143l3.5-3.5,5,5-8,8-5-5L369,144" transform="translate(0 0)"/><path class="c" d="M519,219l3.5-3.5,5,5-8,8-5-5L518,220" transform="translate(0 0)"/><path class="c" d="M489,215l3.5-3.5,5,5-8,8-5-5L488,216" transform="translate(0 0)"/><path class="c" d="M186,183l3.5-3.5,5,5-8,8-5-5L185,184" transform="translate(0 0)"/><path class="c" d="M498,172l3.5-3.5,5,5-8,8-5-5L497,173" transform="translate(0 0)"/><path class="c" d="M246,144l3.5-3.5,5,5-8,8-5-5L245,145" transform="translate(0 0)"/><path class="c" d="M263,161l3.5-3.5,5,5-8,8-5-5L262,162" transform="translate(0 0)"/><path class="c" d="M374,173l3.5-3.5,5,5-8,8-5-5L373,174" transform="translate(0 0)"/><path class="c" d="M387,160l3.5-3.5,5,5-8,8-5-5L386,161" transform="translate(0 0)"/><path class="c" d="M421,194l3.5-3.5,5,5-8,8-5-5L420,195" transform="translate(0 0)"/><path class="c" d="M178,123l3.5-3.5,5,5-8,8-5-5L177,124" transform="translate(0 0)"/><path class="c" d="M310,182l3.5-3.5,5,5-8,8-5-5L309,183" transform="translate(0 0)"/><path class="c" d="M511,159l3.5-3.5,5,5-8,8-5-5L510,160" transform="translate(0 0)"/><path class="c" d="M267,191l3.5-3.5,5,5-8,8-5-5L266,192" transform="translate(0 0)"/><path class="c" d="M122,145l3.5-3.5,5,5-8,8-5-5L121,146" transform="translate(0 0)"/><path class="c" d="M502,202l3.5-3.5,5,5-8,8-5-5L501,203" transform="translate(0 0)"/><path class="c" d="M161,106l3.5-3.5,5,5-8,8-5-5L160,107" transform="translate(0 0)"/><path class="c" d="M383,130l3.5-3.5,5,5-8,8-5-5L382,131" transform="translate(0 0)"/><path class="c" d="M400,147l3.5-3.5,5,5-8,8-5-5L399,148" transform="translate(0 0)"/><path class="c" d="M148,119l3.5-3.5,5,5-8,8-5-5L147,120" transform="translate(0 0)"/><path class="c" d="M250,174l3.5-3.5,5,5-8,8-5-5L249,175" transform="translate(0 0)"/><path class="c" d="M259,131l3.5-3.5,5,5-8,8-5-5L258,132" transform="translate(0 0)"/><path class="c" d="M233,157l3.5-3.5,5,5-8,8-5-5L232,158" transform="translate(0 0)"/><path class="c" d="M276,148l3.5-3.5,5,5-8,8-5-5L275,149" transform="translate(0 0)"/><path class="c" d="M212,157l3.5-3.5,5,5-8,8-5-5L211,158" transform="translate(0 0)"/><path class="c" d="M455,181l3.5-3.5,5,5-8,8-5-5L454,182" transform="translate(0 0)"/><path class="c" d="M434,181l3.5-3.5,5,5-8,8-5-5L433,182" transform="translate(0 0)"/><path class="c" d="M528,176l3.5-3.5,5,5-8,8-5-5L527,177" transform="translate(0 0)"/><path class="c" d="M404,177l3.5-3.5,5,5-8,8-5-5L403,178" transform="translate(0 0)"/><path class="c" d="M357,156l3.5-3.5,5,5-8,8-5-5L356,157" transform="translate(0 0)"/><path class="c" d="M152,149l3.5-3.5,5,5-8,8-5-5L151,150" transform="translate(0 0)"/><path class="c" d="M284,208l3.5-3.5,5,5-8,8-5-5L283,209" transform="translate(0 0)"/><path class="c" d="M165,136l3.5-3.5,5,5-8,8-5-5L164,137" transform="translate(0 0)"/><path class="c" d="M378,203l3.5-3.5,5,5-8,8-5-5L377,204" transform="translate(0 0)"/><path class="c" d="M532,206l3.5-3.5,5,5-8,8-5-5L531,207" transform="translate(0 0)"/><path class="c" d="M156,179l3.5-3.5,5,5-8,8-5-5L155,180" transform="translate(0 0)"/><path class="c" d="M481,155l3.5-3.5,5,5-8,8-5-5L480,156" transform="translate(0 0)"/><path class="c" d="M272,118l3.5-3.5,5,5-8,8-5-5L271,119" transform="translate(0 0)"/><path class="c" d="M173,196l3.5-3.5,5,5-8,8-5-5L172,197" transform="translate(0 0)"/><path class="c" d="M280,178l3.5-3.5,5,5-8,8-5-5L279,179" transform="translate(0 0)"/><path class="c" d="M391,190l3.5-3.5,5,5-8,8-5-5L390,191" transform="translate(0 0)"/><path class="c" d="M297,195l3.5-3.5,5,5-8,8-5-5L296,196" transform="translate(0 0)"/><path class="c" d="M135,132l3.5-3.5,5,5-8,8-5-5L134,133" transform="translate(0 0)"/><path class="c" d="M182,153l3.5-3.5,5,5-8,8-5-5L181,154" transform="translate(0 0)"/><path class="c" d="M408,207l3.5-3.5,5,5-8,8-5-5L407,208" transform="translate(0 0)"/><path class="c" d="M289,135l3.5-3.5,5,5-8,8-5-5L288,136" transform="translate(0 0)"/><path class="c" d="M516,165l4.5,4.5-11,11" transform="translate(0 0)"/><path class="c" d="M294,141l4.5,4.5-11,11" transform="translate(0 0)"/><path class="c" d="M405,153l4.5,4.5-11,11" transform="translate(0 0)"/><path class="c" d="M166,112l4.5,4.5-11,11" transform="translate(0 0)"/><path class="c" d="M388,136l4.5,4.5-11,11" transform="translate(0 0)"/><path class="c" d="M499,148l4.5,4.5-11,11" transform="translate(0 0)"/><path class="c" d="M183,129l4.5,4.5-11,11" transform="translate(0 0)"/><path class="c" d="M277,124l4.5,4.5-11,11" transform="translate(0 0)"/><path class="c" d="M199.5,159.5l1,1-6,6,1,1,3,3" transform="translate(0 0)"/><path class="c" d="M532.5,195.5l1,1-6,6,4,4" transform="translate(0 0)"/><path class="c" d="M297.5,184.5l1,1-6,6,4,4" transform="translate(0 0)"/><path class="c" d="M395.5,209.5l1,1-6,6,1,1,3,3" transform="translate(0 0)"/><path class="c" d="M519.5,208.5l1,1-6,6,1,1,3,3" transform="translate(0 0)"/><path class="c" d="M408.5,196.5l1,1-6,6,4,4" transform="translate(0 0)"/><path class="c" d="M284.5,197.5l1,1-6,6,1,1,3,3" transform="translate(0 0)"/><path class="c" d="M173.5,185.5l1,1-6,6,1,1,3,3" transform="translate(0 0)"/><path class="c" d="M421.5,183.5l1,1-6,6,1,1,3,3" transform="translate(0 0)"/><path class="c" d="M310.5,171.5l1,1-6,6,4,4" transform="translate(0 0)"/><path class="c" d="M186.5,172.5l1,1-6,6,4,4" transform="translate(0 0)"/><path class="c" d="M506.5,221.5l1,1-6,6,1,1,3,3" transform="translate(0 0)"/><path class="c" d="M360,174l14.5,14.5" transform="translate(0 0)"/><path class="c" d="M151,137l14.5,14.5" transform="translate(0 0)"/><path class="c" d="M275,136l14.5,14.5" transform="translate(0 0)"/><path class="c" d="M181,141l14.5,14.5" transform="translate(0 0)"/><path class="c" d="M471,186l14.5,14.5" transform="translate(0 0)"/><path class="c" d="M484,173l14.5,14.5" transform="translate(0 0)"/><path class="c" d="M377,191l14.5,14.5" transform="translate(0 0)"/><path class="c" d="M497,160l14.5,14.5" transform="translate(0 0)"/><path class="c" d="M514,177l14.5,14.5" transform="translate(0 0)"/><path class="c" d="M386,148l14.5,14.5" transform="translate(0 0)"/><path class="c" d="M390,178l14.5,14.5" transform="translate(0 0)"/><path class="c" d="M373,161l14.5,14.5" transform="translate(0 0)"/><path class="c" d="M488,203l14.5,14.5" transform="translate(0 0)"/><path class="c" d="M262,149l14.5,14.5" transform="translate(0 0)"/><path class="c" d="M155,167l14.5,14.5" transform="translate(0 0)"/><path class="c" d="M138,150l14.5,14.5" transform="translate(0 0)"/><path class="c" d="M164,124l14.5,14.5" transform="translate(0 0)"/><path class="c" d="M279,166l14.5,14.5" transform="translate(0 0)"/><path class="c" d="M266,179l14.5,14.5" transform="translate(0 0)"/><path class="c" d="M249,162l14.5,14.5" transform="translate(0 0)"/><path class="c" d="M403,165l14.5,14.5" transform="translate(0 0)"/><path class="c" d="M292,153l14.5,14.5" transform="translate(0 0)"/><path class="c" d="M168,154l14.5,14.5" transform="translate(0 0)"/><path class="c" d="M501,190l14.5,14.5" transform="translate(0 0)"/><path class="c" d="M372,135l-5.5,5.5,3,3" transform="translate(0 0)"/><path class="c" d="M509,215l-8.5,8.5" transform="translate(0 0)"/><path class="c" d="M496,134l-5.5,5.5,3,3" transform="translate(0 0)"/><path class="c" d="M504,194l-5.5,5.5,3,3" transform="translate(0 0)"/><path class="c" d="M530,168l-5.5,5.5,3,3" transform="translate(0 0)"/><path class="c" d="M171,158l-5.5,5.5,3,3" transform="translate(0 0)"/><path class="c" d="M248,136l-5.5,5.5,3,3" transform="translate(0 0)"/><path class="c" d="M163,98l-5.5,5.5,3,3" transform="translate(0 0)"/><path class="c" d="M197,132l-5.5,5.5,3,3" transform="translate(0 0)"/><path class="c" d="M308,144l-5.5,5.5,3,3" transform="translate(0 0)"/><path class="c" d="M137.5,313.5c.33,2.83.67,5.67,1,8.5" transform="translate(0 0)"/><path class="c" d="M406,169l-5.5,5.5,3,3" transform="translate(0 0)"/><path class="c" d="M470,160l-5.5,5.5,3,3" transform="translate(0 0)"/><path class="c" d="M295,157l-5.5,5.5,3,3" transform="translate(0 0)"/><path class="c" d="M121.5,313.5c-.33,2.83-.67,5.67-1,8.5" transform="translate(0 0)"/><path class="c" d="M176,179l-8.5,8.5" transform="translate(0 0)"/><path class="c" d="M124,137l-5.5,5.5,3,3" transform="translate(0 0)"/><path class="c" d="M252,166l-5.5,5.5,3,3" transform="translate(0 0)"/><path class="c" d="M269,183l-5.5,5.5,3,3" transform="translate(0 0)"/><path class="c" d="M282,170l-5.5,5.5,3,3" transform="translate(0 0)"/><path class="c" d="M232.5,313.5c-.33,2.83-.67,5.67-1,8.5" transform="translate(0 0)"/><path class="c" d="M419,156l-5.5,5.5,3,3" transform="translate(0 0)"/><path class="c" d="M137,124l-5.5,5.5,3,3" transform="translate(0 0)"/><path class="c" d="M274,110l-5.5,5.5,3,3" transform="translate(0 0)"/><path class="c" d="M189,166l-8.5,8.5" transform="translate(0 0)"/><path class="c" d="M317,195l-8.5,8.5" transform="translate(0 0)"/><path class="c" d="M206,183l-8.5,8.5" transform="translate(0 0)"/><path class="c" d="M158,171l-5.5,5.5,3,3" transform="translate(0 0)"/><path class="c" d="M167,128l-5.5,5.5,3,3" transform="translate(0 0)"/><path class="c" d="M141,154l-5.5,5.5,3,3" transform="translate(0 0)"/><path class="c" d="M411,190l-8.5,8.5" transform="translate(0 0)"/><path class="c" d="M304,208l-8.5,8.5" transform="translate(0 0)"/><path class="c" d="M150,111l-5.5,5.5,3,3" transform="translate(0 0)"/><path class="c" d="M248.5,313.5c.33,2.83.67,5.67,1,8.5" transform="translate(0 0)"/><path class="c" d="M363,178l-5.5,5.5,3,3" transform="translate(0 0)"/><path class="c" d="M265,153l-5.5,5.5,3,3" transform="translate(0 0)"/><path class="c" d="M539,219l-8.5,8.5" transform="translate(0 0)"/><path class="c" d="M457,173l-5.5,5.5,3,3" transform="translate(0 0)"/><path class="c" d="M415,220l-8.5,8.5" transform="translate(0 0)"/><path class="c" d="M491,207l-5.5,5.5,3,3" transform="translate(0 0)"/><path class="c" d="M261,123l-5.5,5.5,3,3" transform="translate(0 0)"/><path class="c" d="M470.5,313.5c.33,2.83.67,5.67,1,8.5" transform="translate(0 0)"/><path class="c" d="M428,207l-8.5,8.5" transform="translate(0 0)"/><path class="c" d="M376,165l-5.5,5.5,3,3" transform="translate(0 0)"/><path class="c" d="M291,127l-5.5,5.5,3,3" transform="translate(0 0)"/><path class="c" d="M346,161l-5.5,5.5,3,3" transform="translate(0 0)"/><path class="c" d="M393,182l-5.5,5.5,3,3" transform="translate(0 0)"/><path class="c" d="M389,152l-5.5,5.5,3,3" transform="translate(0 0)"/><path class="c" d="M385,122l-5.5,5.5,3,3" transform="translate(0 0)"/><path class="c" d="M380,195l-5.5,5.5,3,3" transform="translate(0 0)"/><path class="c" d="M343.5,313.5c-.33,2.83-.67,5.67-1,8.5" transform="translate(0 0)"/><path class="c" d="M513,151l-5.5,5.5,3,3" transform="translate(0 0)"/><path class="c" d="M517,181l-5.5,5.5,3,3" transform="translate(0 0)"/><path class="c" d="M500,164l-5.5,5.5,3,3" transform="translate(0 0)"/><path class="c" d="M287,191l-8.5,8.5" transform="translate(0 0)"/><path class="c" d="M235,149l-5.5,5.5,3,3" transform="translate(0 0)"/><path class="c" d="M180,115l-5.5,5.5,3,3" transform="translate(0 0)"/><path class="c" d="M402,139l-5.5,5.5,3,3" transform="translate(0 0)"/><path class="c" d="M359,148l-5.5,5.5,3,3" transform="translate(0 0)"/><path class="c" d="M193,196l-8.5,8.5" transform="translate(0 0)"/><path class="c" d="M398,203l-8.5,8.5" transform="translate(0 0)"/><path class="c" d="M359.5,313.5c.33,2.83.67,5.67,1,8.5" transform="translate(0 0)"/><path class="c" d="M522,202l-8.5,8.5" transform="translate(0 0)"/><path class="c" d="M300,178l-8.5,8.5" transform="translate(0 0)"/><path class="c" d="M487,177l-5.5,5.5,3,3" transform="translate(0 0)"/><path class="c" d="M454.5,313.5c-.33,2.83-.67,5.67-1,8.5" transform="translate(0 0)"/><path class="c" d="M278,140l-5.5,5.5,3,3" transform="translate(0 0)"/><path class="c" d="M483,147l-5.5,5.5,3,3" transform="translate(0 0)"/><path class="c" d="M526,232l-8.5,8.5" transform="translate(0 0)"/><path class="c" d="M184,145l-5.5,5.5,3,3" transform="translate(0 0)"/><path class="c" d="M474,190l-5.5,5.5,3,3" transform="translate(0 0)"/><path class="c" d="M154,141l-5.5,5.5,3,3" transform="translate(0 0)"/><path class="c" d="M288,157c1.4,2.74-.28,3.77-2.69,4.79l-3-2.41c.57-3,1.51-4.86,4.67-3.38" transform="translate(0 0)"/><path class="c" d="M403,199c1.4,2.74-.28,3.77-2.69,4.79l-3-2.41c.57-3,1.51-4.86,4.67-3.38" transform="translate(0 0)"/><path class="c" d="M527,198c1.4,2.74-.28,3.77-2.69,4.79l-3-2.41c.57-3,1.51-4.86,4.67-3.38" transform="translate(0 0)"/><path class="c" d="M211,179c1.4,2.74-.28,3.77-2.69,4.79l-3-2.41c.57-3,1.51-4.86,4.67-3.38" transform="translate(0 0)"/><path class="c" d="M356,178c1.4,2.74-.28,3.77-2.69,4.79l-3-2.41c.57-3,1.51-4.86,4.67-3.38" transform="translate(0 0)"/><path class="c" d="M147,141c1.4,2.74-.28,3.77-2.69,4.79l-3-2.41c.57-3,1.51-4.86,4.67-3.38" transform="translate(0 0)"/><path class="c" d="M177,145c1.4,2.74-.28,3.77-2.69,4.79l-3-2.41c.57-3,1.51-4.86,4.67-3.38" transform="translate(0 0)"/><path class="c" d="M279,200c1.4,2.74-.28,3.77-2.69,4.79l-3-2.41c.57-3,1.51-4.86,4.67-3.38" transform="translate(0 0)"/><path class="c" d="M271,140c1.4,2.74-.28,3.77-2.69,4.79l-3-2.41c.57-3,1.51-4.86,4.67-3.38" transform="translate(0 0)"/><path class="c" d="M480,177c1.4,2.74-.28,3.77-2.69,4.79l-3-2.41c.57-3,1.51-4.86,4.67-3.38" transform="translate(0 0)"/><path class="c" d="M433,203c1.4,2.74-.28,3.77-2.69,4.79l-3-2.41c.57-3,1.51-4.86,4.67-3.38" transform="translate(0 0)"/><path class="c" d="M531,228c1.4,2.74-.28,3.77-2.69,4.79l-3-2.41c.57-3,1.51-4.86,4.67-3.38" transform="translate(0 0)"/><path class="c" d="M181,175c1.4,2.74-.28,3.77-2.69,4.79l-3-2.41c.57-3,1.51-4.86,4.67-3.38" transform="translate(0 0)"/><path class="c" d="M510,181c1.4,2.74-.28,3.77-2.69,4.79l-3-2.41c.57-3,1.51-4.86,4.67-3.38" transform="translate(0 0)"/><path class="c" d="M194,162c1.4,2.74-.28,3.77-2.69,4.79l-3-2.41c.57-3,1.51-4.86,4.67-3.38" transform="translate(0 0)"/><path class="c" d="M407,229c1.4,2.74-.28,3.77-2.69,4.79l-3-2.41c.57-3,1.51-4.86,4.67-3.38" transform="translate(0 0)"/><path class="c" d="M382,152c1.4,2.74-.28,3.77-2.69,4.79l-3-2.41c.57-3,1.51-4.86,4.67-3.38" transform="translate(0 0)"/><path class="c" d="M309,204c1.4,2.74-.28,3.77-2.69,4.79l-3-2.41c.57-3,1.51-4.86,4.67-3.38" transform="translate(0 0)"/><path class="c" d="M501,224c1.4,2.74-.28,3.77-2.69,4.79l-3-2.41c.57-3,1.51-4.86,4.67-3.38" transform="translate(0 0)"/><path class="c" d="M373,195c1.4,2.74-.28,3.77-2.69,4.79l-3-2.41c.57-3,1.51-4.86,4.67-3.38" transform="translate(0 0)"/><path class="c" d="M386,182c1.4,2.74-.28,3.77-2.69,4.79l-3-2.41c.57-3,1.51-4.86,4.67-3.38" transform="translate(0 0)"/><path class="c" d="M305,174c1.4,2.74-.28,3.77-2.69,4.79l-3-2.41c.57-3,1.51-4.86,4.67-3.38" transform="translate(0 0)"/><path class="c" d="M185,205c1.4,2.74-.28,3.77-2.69,4.79l-3-2.41c.57-3,1.51-4.86,4.67-3.38" transform="translate(0 0)"/><path class="c" d="M258,153c1.4,2.74-.28,3.77-2.69,4.79l-3-2.41c.57-3,1.51-4.86,4.67-3.38" transform="translate(0 0)"/><path class="c" d="M484,207c1.4,2.74-.28,3.77-2.69,4.79l-3-2.41c.57-3,1.51-4.86,4.67-3.38" transform="translate(0 0)"/><path class="c" d="M134,154c1.4,2.74-.28,3.77-2.69,4.79l-3-2.41c.57-3,1.51-4.86,4.67-3.38" transform="translate(0 0)"/><path class="c" d="M151,171c1.4,2.74-.28,3.77-2.69,4.79l-3-2.41c.57-3,1.51-4.86,4.67-3.38" transform="translate(0 0)"/><path class="c" d="M518,241c1.4,2.74-.28,3.77-2.69,4.79l-3-2.41c.57-3,1.51-4.86,4.67-3.38" transform="translate(0 0)"/><path class="c" d="M262,183c1.4,2.74-.28,3.77-2.69,4.79l-3-2.41c.57-3,1.51-4.86,4.67-3.38" transform="translate(0 0)"/><path class="c" d="M275,170c1.4,2.74-.28,3.77-2.69,4.79l-3-2.41c.57-3,1.51-4.86,4.67-3.38" transform="translate(0 0)"/><path class="c" d="M168,188c1.4,2.74-.28,3.77-2.69,4.79l-3-2.41c.57-3,1.51-4.86,4.67-3.38" transform="translate(0 0)"/><path class="c" d="M467,190c1.4,2.74-.28,3.77-2.69,4.79l-3-2.41c.57-3,1.51-4.86,4.67-3.38" transform="translate(0 0)"/><path class="c" d="M399,169c1.4,2.74-.28,3.77-2.69,4.79l-3-2.41c.57-3,1.51-4.86,4.67-3.38" transform="translate(0 0)"/><path class="c" d="M493,164c1.4,2.74-.28,3.77-2.69,4.79l-3-2.41c.57-3,1.51-4.86,4.67-3.38" transform="translate(0 0)"/><path class="c" d="M514,211c1.4,2.74-.28,3.77-2.69,4.79l-3-2.41c.57-3,1.51-4.86,4.67-3.38" transform="translate(0 0)"/><path class="c" d="M322,191c1.4,2.74-.28,3.77-2.69,4.79l-3-2.41c.57-3,1.51-4.86,4.67-3.38" transform="translate(0 0)"/><path class="c" d="M390,212c1.4,2.74-.28,3.77-2.69,4.79l-3-2.41c.57-3,1.51-4.86,4.67-3.38" transform="translate(0 0)"/><path class="c" d="M497,194c1.4,2.74-.28,3.77-2.69,4.79l-3-2.41c.57-3,1.51-4.86,4.67-3.38" transform="translate(0 0)"/><path class="c" d="M369,165c1.4,2.74-.28,3.77-2.69,4.79l-3-2.41c.57-3,1.51-4.86,4.67-3.38" transform="translate(0 0)"/><path class="c" d="M544,215c1.4,2.74-.28,3.77-2.69,4.79l-3-2.41c.57-3,1.51-4.86,4.67-3.38" transform="translate(0 0)"/><path class="c" d="M164,158c1.4,2.74-.28,3.77-2.69,4.79l-3-2.41c.57-3,1.51-4.86,4.67-3.38" transform="translate(0 0)"/><path class="c" d="M420,216c1.4,2.74-.28,3.77-2.69,4.79l-3-2.41c.57-3,1.51-4.86,4.67-3.38" transform="translate(0 0)"/><path class="c" d="M416,186c1.4,2.74-.28,3.77-2.69,4.79l-3-2.41c.57-3,1.51-4.86,4.67-3.38" transform="translate(0 0)"/><path class="c" d="M198,192c1.4,2.74-.28,3.77-2.69,4.79l-3-2.41c.57-3,1.51-4.86,4.67-3.38" transform="translate(0 0)"/><path class="c" d="M292,187c1.4,2.74-.28,3.77-2.69,4.79l-3-2.41c.57-3,1.51-4.86,4.67-3.38" transform="translate(0 0)"/><path class="c" d="M245,166c1.4,2.74-.28,3.77-2.69,4.79l-3-2.41c.57-3,1.51-4.86,4.67-3.38" transform="translate(0 0)"/><path class="c" d="M296,217c1.4,2.74-.28,3.77-2.69,4.79l-3-2.41c.57-3,1.51-4.86,4.67-3.38" transform="translate(0 0)"/><path class="c" d="M160,128c1.4,2.74-.28,3.77-2.69,4.79l-3-2.41c.57-3,1.51-4.86,4.67-3.38" transform="translate(0 0)"/><path class="c" d="M120.5,37.5v6" transform="translate(0 0)"/><path class="c" d="M138.5,37.5v6" transform="translate(0 0)"/><path class="c" d="M396.5,37.5v6" transform="translate(0 0)"/><path class="c" d="M156.5,37.5v6" transform="translate(0 0)"/><path class="c" d="M352.5,37.5v6" transform="translate(0 0)"/><path class="c" d="M414.5,37.5v6" transform="translate(0 0)"/><path class="c" d="M334.5,37.5v6" transform="translate(0 0)"/><path class="c" d="M316.5,37.5v6" transform="translate(0 0)"/><path class="c" d="M298.5,37.5v6" transform="translate(0 0)"/><path class="c" d="M450.5,37.5v6" transform="translate(0 0)"/><path class="c" d="M200.5,37.5v6" transform="translate(0 0)"/><path class="c" d="M254.5,37.5v6" transform="translate(0 0)"/><path class="c" d="M432.5,37.5v6" transform="translate(0 0)"/><path class="c" d="M236.5,37.5v6" transform="translate(0 0)"/><path class="c" d="M218.5,37.5v6" transform="translate(0 0)"/><path class="c" d="M102.5,18.5V24" transform="translate(0 0)"/><path class="c" d="M120.5,18.5V24" transform="translate(0 0)"/><path class="c" d="M138.5,18.5V24" transform="translate(0 0)"/><path class="c" d="M156.5,18.5V24" transform="translate(0 0)"/><path class="c" d="M200.5,18.5V24" transform="translate(0 0)"/><path class="c" d="M218.5,18.5V24" transform="translate(0 0)"/><path class="c" d="M236.5,18.5V24" transform="translate(0 0)"/><path class="c" d="M254.5,18.5V24" transform="translate(0 0)"/><path class="c" d="M298.5,18.5V24" transform="translate(0 0)"/><path class="c" d="M316.5,18.5V24" transform="translate(0 0)"/><path class="c" d="M334.5,18.5V24" transform="translate(0 0)"/><path class="c" d="M352.5,18.5V24" transform="translate(0 0)"/><path class="c" d="M396.5,18.5V24" transform="translate(0 0)"/><path class="c" d="M414.5,18.5V24" transform="translate(0 0)"/><path class="c" d="M432.5,18.5V24" transform="translate(0 0)"/><path class="c" d="M450.5,18.5V24" transform="translate(0 0)"/><path class="c" d="M155,132l-8.5,8.5" transform="translate(0 0)"/><path class="c" d="M266,144l-8.5,8.5" transform="translate(0 0)"/><path class="c" d="M142,145l-8.5,8.5" transform="translate(0 0)"/><path class="c" d="M462.5,307.5V312" transform="translate(0 0)"/><path class="c" d="M351.5,307.5V312" transform="translate(0 0)"/><path class="c" d="M381,186l-8.5,8.5" transform="translate(0 0)"/><path class="c" d="M240.5,307.5V312" transform="translate(0 0)"/><path class="c" d="M129.5,307.5V312" transform="translate(0 0)"/><path class="c" d="M505,185l-8.5,8.5" transform="translate(0 0)"/><path class="c" d="M172,149l-8.5,8.5" transform="translate(0 0)"/><path class="c" d="M377,156l-8.5,8.5" transform="translate(0 0)"/><path class="c" d="M253,157l-8.5,8.5" transform="translate(0 0)"/><path class="c" d="M475,181l-8.5,8.5" transform="translate(0 0)"/><path class="c" d="M283,161l-8.5,8.5" transform="translate(0 0)"/><path class="c" d="M159,162l-8.5,8.5" transform="translate(0 0)"/><path class="c" d="M488,168l-8.5,8.5" transform="translate(0 0)"/><path class="c" d="M364,169l-8.5,8.5" transform="translate(0 0)"/><path class="c" d="M394,173l-8.5,8.5" transform="translate(0 0)"/><path class="c" d="M270,174l-8.5,8.5" transform="translate(0 0)"/><path class="c" d="M492,198l-8.5,8.5" transform="translate(0 0)"/><path class="c" d="M464.5,303.5h-4" transform="translate(0 0)"/><path class="c" d="M353.5,303.5h-4" transform="translate(0 0)"/><path class="c" d="M242.5,303.5h-4" transform="translate(0 0)"/><path class="c" d="M131.5,303.5h-4" transform="translate(0 0)"/><path class="c" d="M460.5,299.5l2,2,2-2" transform="translate(0 0)"/><path class="c" d="M349.5,299.5l2,2,2-2" transform="translate(0 0)"/><path class="c" d="M238.5,299.5l2,2,2-2" transform="translate(0 0)"/><path class="c" d="M127.5,299.5l2,2,2-2" transform="translate(0 0)"/><path class="c" d="M362,162l2.5,2.5" transform="translate(0 0)"/><path class="c" d="M409,183l2.5,2.5" transform="translate(0 0)"/><path class="c" d="M400,226l2.5,2.5" transform="translate(0 0)"/><path class="c" d="M285,184l2.5,2.5" transform="translate(0 0)"/><path class="c" d="M191,189l2.5,2.5" transform="translate(0 0)"/><path class="c" d="M379,179l2.5,2.5" transform="translate(0 0)"/><path class="c" d="M486,161l2.5,2.5" transform="translate(0 0)"/><path class="c" d="M511,238l2.5,2.5" transform="translate(0 0)"/><path class="c" d="M524,225l2.5,2.5" transform="translate(0 0)"/><path class="c" d="M161,185l2.5,2.5" transform="translate(0 0)"/><path class="c" d="M383,209l2.5,2.5" transform="translate(0 0)"/><path class="c" d="M315,188l2.5,2.5" transform="translate(0 0)"/><path class="c" d="M396,196l2.5,2.5" transform="translate(0 0)"/><path class="c" d="M255,180l2.5,2.5" transform="translate(0 0)"/><path class="c" d="M366,192l2.5,2.5" transform="translate(0 0)"/><path class="c" d="M507,208l2.5,2.5" transform="translate(0 0)"/><path class="c" d="M298,171l2.5,2.5" transform="translate(0 0)"/><path class="c" d="M174,172l2.5,2.5" transform="translate(0 0)"/><path class="c" d="M375,149l2.5,2.5" transform="translate(0 0)"/><path class="c" d="M144,168l2.5,2.5" transform="translate(0 0)"/><path class="c" d="M537,212l2.5,2.5" transform="translate(0 0)"/><path class="c" d="M170,142l2.5,2.5" transform="translate(0 0)"/><path class="c" d="M251,150l2.5,2.5" transform="translate(0 0)"/><path class="c" d="M127,151l2.5,2.5" transform="translate(0 0)"/><path class="c" d="M413,213l2.5,2.5" transform="translate(0 0)"/><path class="c" d="M477,204l2.5,2.5" transform="translate(0 0)"/><path class="c" d="M289,214l2.5,2.5" transform="translate(0 0)"/><path class="c" d="M268,167l2.5,2.5" transform="translate(0 0)"/><path class="c" d="M140,138l2.5,2.5" transform="translate(0 0)"/><path class="c" d="M264,137l2.5,2.5" transform="translate(0 0)"/><path class="c" d="M473,174l2.5,2.5" transform="translate(0 0)"/><path class="c" d="M281,154l2.5,2.5" transform="translate(0 0)"/><path class="c" d="M349,175l2.5,2.5" transform="translate(0 0)"/><path class="c" d="M157,155l2.5,2.5" transform="translate(0 0)"/><path class="c" d="M204,176l2.5,2.5" transform="translate(0 0)"/><path class="c" d="M392,166l2.5,2.5" transform="translate(0 0)"/><path class="c" d="M272,197l2.5,2.5" transform="translate(0 0)"/><path class="c" d="M153,125l2.5,2.5" transform="translate(0 0)"/><path class="c" d="M187,159l2.5,2.5" transform="translate(0 0)"/><path class="c" d="M178,202l2.5,2.5" transform="translate(0 0)"/><path class="c" d="M494,221l2.5,2.5" transform="translate(0 0)"/><path class="c" d="M490,191l2.5,2.5" transform="translate(0 0)"/><path class="c" d="M520,195l2.5,2.5" transform="translate(0 0)"/><path class="c" d="M302,201l2.5,2.5" transform="translate(0 0)"/><path class="c" d="M426,200l2.5,2.5" transform="translate(0 0)"/><path class="c" d="M460,187l2.5,2.5" transform="translate(0 0)"/><path class="c" d="M238,163l2.5,2.5" transform="translate(0 0)"/><path class="c" d="M503,178l2.5,2.5" transform="translate(0 0)"/><path class="c" d="M120.5,299.5l1,1.5" transform="translate(0 0)"/><path class="c" d="M231.5,299.5l1,1.5" transform="translate(0 0)"/><path class="c" d="M342.5,299.5l1,1.5" transform="translate(0 0)"/><path class="c" d="M453.5,299.5l1,1.5" transform="translate(0 0)"/><rect class="d" x="96.58" y="12.8" width="11.69" height="4.99"/><rect class="d" x="114.65" y="12.8" width="11.69" height="4.99"/><rect class="d" x="132.68" y="12.8" width="11.69" height="4.99"/><rect class="d" x="150.68" y="12.8" width="11.69" height="4.99"/><rect class="d" x="194.42" y="12.79" width="11.69" height="4.99"/><rect class="d" x="212.92" y="12.79" width="11.69" height="4.99"/><rect class="d" x="230.92" y="12.79" width="11.69" height="4.99"/><rect class="d" x="248.39" y="12.79" width="11.69" height="4.99"/><rect class="d" x="292.78" y="12.79" width="11.69" height="4.99"/><rect class="d" x="310.78" y="12.79" width="11.69" height="4.99"/><rect class="d" x="328.78" y="12.79" width="11.69" height="4.99"/><rect class="d" x="346.78" y="12.79" width="11.69" height="4.99"/><rect class="d" x="390.78" y="12.79" width="11.69" height="4.99"/><rect class="d" x="408.78" y="12.79" width="11.69" height="4.99"/><rect class="d" x="426.78" y="12.79" width="11.69" height="4.99"/><rect class="d" x="444.62" y="12.82" width="11.69" height="4.99"/><path d="M11.47,24.23h3.72a2.49,2.49,0,0,1,2.17.91,2.06,2.06,0,0,1,.37,1.23,1.91,1.91,0,0,1-.46,1.33,2.14,2.14,0,0,1-.69.51,2.84,2.84,0,0,1,1,.57,2,2,0,0,1,.58,1.55,2.36,2.36,0,0,1-.52,1.5,3,3,0,0,1-2.5,1H11.47Zm3.29,3.64a2.66,2.66,0,0,0,1.16-.2,1.19,1.19,0,0,0,.65-1.16,1.13,1.13,0,0,0-.69-1.14,3.15,3.15,0,0,0-1.16-.16H12.61v2.66Zm.39,4a1.79,1.79,0,0,0,1.54-.62,1.53,1.53,0,0,0,.29-.95A1.27,1.27,0,0,0,16.14,29,3.27,3.27,0,0,0,15,28.82H12.61v3Z" transform="translate(0 0)"/><path d="M23.29,26.57h1.16c-.15.4-.48,1.32-1,2.75q-.57,1.62-1,2.64a17.86,17.86,0,0,1-1.29,2.93,1.47,1.47,0,0,1-1.28.52h-.35l-.29-.07v-1l.39.1h.22a.79.79,0,0,0,.43-.09,1,1,0,0,0,.23-.24s.09-.19.21-.48L21,33l-2.32-6.46h1.19l1.68,5.11Z" transform="translate(0 0)"/><path d="M25.57,24.81h1.07v1.76h1v.86h-1v4.09a.44.44,0,0,0,.22.44.86.86,0,0,0,.41.07h.17l.2,0v.84a2.12,2.12,0,0,1-.38.08l-.42,0a1.12,1.12,0,0,1-1-.38,1.65,1.65,0,0,1-.27-1V27.43h-.85v-.86h.85Z" transform="translate(0 0)"/><path d="M32.57,26.74a2.32,2.32,0,0,1,1,.81,2.85,2.85,0,0,1,.42,1.11A7.33,7.33,0,0,1,34,30H29.47a2.73,2.73,0,0,0,.45,1.54,1.5,1.5,0,0,0,1.29.58,1.68,1.68,0,0,0,1.31-.55,1.82,1.82,0,0,0,.39-.74h1a2.13,2.13,0,0,1-.28.77,2.58,2.58,0,0,1-.51.7A2.46,2.46,0,0,1,32,33a3.72,3.72,0,0,1-.86.09,2.61,2.61,0,0,1-2-.85,3.33,3.33,0,0,1-.81-2.39,3.59,3.59,0,0,1,.82-2.45,2.66,2.66,0,0,1,2.13-.94A2.78,2.78,0,0,1,32.57,26.74ZM33,29.2a2.61,2.61,0,0,0-.3-1.09,1.5,1.5,0,0,0-1.43-.76,1.59,1.59,0,0,0-1.21.52,2,2,0,0,0-.52,1.33Z" transform="translate(0 0)"/><path d="M39.61,30.06a2.29,2.29,0,0,0,.33,1.19,2.17,2.17,0,0,0,2,.86,3.23,3.23,0,0,0,1.15-.19,1.32,1.32,0,0,0,1-1.3,1.15,1.15,0,0,0-.43-1,4,4,0,0,0-1.35-.51l-1.13-.26a5.47,5.47,0,0,1-1.57-.57,1.82,1.82,0,0,1-.79-1.61,2.52,2.52,0,0,1,.78-1.91A3.11,3.11,0,0,1,41.79,24a3.8,3.8,0,0,1,2.24.65A2.4,2.4,0,0,1,45,26.76H43.86a2.31,2.31,0,0,0-.36-1.06A2,2,0,0,0,41.76,25a2,2,0,0,0-1.42.43,1.37,1.37,0,0,0-.43,1,1,1,0,0,0,.51.92,7.14,7.14,0,0,0,1.51.47l1.17.28a3.49,3.49,0,0,1,1.31.54,2.06,2.06,0,0,1,.79,1.75,2.19,2.19,0,0,1-1,2,4.46,4.46,0,0,1-2.36.61,3.46,3.46,0,0,1-2.45-.82,2.81,2.81,0,0,1-.87-2.21Z" transform="translate(0 0)"/><path d="M47.76,26.57v4.16a1.82,1.82,0,0,0,.15.79,1,1,0,0,0,1,.56,1.44,1.44,0,0,0,1.46-1,3.84,3.84,0,0,0,.22-1.45V26.57h1v6.27h-1l0-.92a2.46,2.46,0,0,1-.5.6,2.19,2.19,0,0,1-1.44.49,1.86,1.86,0,0,1-1.8-.89,2.77,2.77,0,0,1-.25-1.29V26.57Z" transform="translate(0 0)"/><path d="M53.29,24.21h1v3.12a2.38,2.38,0,0,1,.83-.69,2.31,2.31,0,0,1,1.05-.24,2.46,2.46,0,0,1,1.91.81,3.46,3.46,0,0,1,.73,2.37,4,4,0,0,1-.73,2.48,2.35,2.35,0,0,1-2,1,2.05,2.05,0,0,1-1.21-.34,2.88,2.88,0,0,1-.63-.66v.8h-1Zm4,7.22a3.36,3.36,0,0,0,.42-1.79A3,3,0,0,0,57.33,28a1.41,1.41,0,0,0-1.26-.65,1.72,1.72,0,0,0-1.26.53,2.35,2.35,0,0,0-.55,1.76,3.78,3.78,0,0,0,.23,1.43,1.53,1.53,0,0,0,1.55,1A1.43,1.43,0,0,0,57.33,31.43Z" transform="translate(0 0)"/><path d="M12.7,69.24A2.46,2.46,0,0,0,13,70.43a2.15,2.15,0,0,0,2,.85,3.28,3.28,0,0,0,1.16-.19,1.31,1.31,0,0,0,1-1.3,1.14,1.14,0,0,0-.42-1,4.51,4.51,0,0,0-1.36-.51L14.25,68a4.85,4.85,0,0,1-1.56-.57,1.83,1.83,0,0,1-.8-1.61,2.52,2.52,0,0,1,.78-1.91,3.13,3.13,0,0,1,2.22-.74,3.77,3.77,0,0,1,2.23.65,2.38,2.38,0,0,1,.93,2.09H17a2.31,2.31,0,0,0-.36-1.06,2,2,0,0,0-1.74-.67,2,2,0,0,0-1.42.43,1.43,1.43,0,0,0-.43,1,1,1,0,0,0,.51.92A6.71,6.71,0,0,0,15,67l1.17.28a3.44,3.44,0,0,1,1.3.54,2.08,2.08,0,0,1,.8,1.75,2.2,2.2,0,0,1-1,2.05,4.43,4.43,0,0,1-2.35.62,3.44,3.44,0,0,1-2.45-.83,2.72,2.72,0,0,1-.87-2.2Z" transform="translate(0 0)"/><path d="M19.8,63.38h1.06v3.21a3,3,0,0,1,.67-.67,2.31,2.31,0,0,1,1.27-.33,1.89,1.89,0,0,1,1.86,1A3.36,3.36,0,0,1,24.92,68v4H23.83v-4a2.23,2.23,0,0,0-.17-1,1.13,1.13,0,0,0-1.08-.51,1.8,1.8,0,0,0-1.19.45,2.2,2.2,0,0,0-.53,1.71V72H19.8Z" transform="translate(0 0)"/><path d="M26.48,63.41h1.07V64.6H26.48Zm0,2.36h1.07V72H26.48Z" transform="translate(0 0)"/><path d="M29.64,63.82a1.6,1.6,0,0,1,1.42-.54h.2l.24,0v1l-.23,0h-.14c-.33,0-.52.08-.59.25a5.1,5.1,0,0,0-.09,1.27H31.5v.83H30.45V72h-1V66.6h-.88v-.83h.88v-1A1.8,1.8,0,0,1,29.64,63.82Z" transform="translate(0 0)"/><path d="M32.69,64h1.06v1.75h1v.86h-1v4.09a.44.44,0,0,0,.23.44.84.84,0,0,0,.41.07h.37V72a2.33,2.33,0,0,1-.38.08l-.43,0a1.13,1.13,0,0,1-1-.38,1.7,1.7,0,0,1-.26-1V66.6h-.85v-.86h.85Z" transform="translate(0 0)"/><path d="M39.43,63.41h3.91a3.87,3.87,0,0,1,1.59.28,2,2,0,0,1,1.19,2A2.23,2.23,0,0,1,45.8,67a2.29,2.29,0,0,1-.89.79,1.79,1.79,0,0,1,.76.54A2,2,0,0,1,46,69.41l0,1.15a3,3,0,0,0,.08.73.71.71,0,0,0,.37.53V72H45a.92.92,0,0,1-.09-.28c0-.12,0-.35-.06-.68l-.07-1.44a1.22,1.22,0,0,0-.61-1.13,2.4,2.4,0,0,0-1-.16H40.59V72H39.43Zm3.78,3.94A2.15,2.15,0,0,0,44.48,67a1.35,1.35,0,0,0,.46-1.18,1.29,1.29,0,0,0-.65-1.26,2.18,2.18,0,0,0-.93-.17H40.59v2.94Z" transform="translate(0 0)"/><path d="M52.36,66.36a3.19,3.19,0,0,1,.83,2.38,4.1,4.1,0,0,1-.73,2.51,2.65,2.65,0,0,1-2.28,1,2.58,2.58,0,0,1-2-.88A3.49,3.49,0,0,1,47.38,69a3.79,3.79,0,0,1,.8-2.52,2.68,2.68,0,0,1,2.14-.93A2.86,2.86,0,0,1,52.36,66.36Zm-.66,4.17a3.89,3.89,0,0,0,.39-1.76,3.14,3.14,0,0,0-.28-1.43,1.55,1.55,0,0,0-1.52-.86,1.5,1.5,0,0,0-1.39.73A3.48,3.48,0,0,0,48.47,69a3,3,0,0,0,.43,1.67,1.52,1.52,0,0,0,1.38.67A1.43,1.43,0,0,0,51.7,70.53Z" transform="translate(0 0)"/><path d="M55,65.74l1.21,4.94,1.23-4.94h1.18l1.23,4.91,1.28-4.91h1.06L60.34,72h-1.1L58,67.16,56.73,72h-1.1l-1.81-6.27Z" transform="translate(0 0)"/><path d="M11.4,153.94h1.67l2.48,7.27L18,153.94h1.66v8.6H18.55v-5.08c0-.17,0-.46,0-.87s0-.84,0-1.31l-2.46,7.26H15l-2.48-7.26v.27c0,.21,0,.53,0,1s0,.75,0,1v5.08H11.4Z" transform="translate(0 0)"/><path d="M21.29,153.94h1.07v1.19H21.29Zm0,2.36h1.07v6.24H21.29Z" transform="translate(0 0)"/><path d="M23.36,156.27h1.36l1.44,2.21,1.46-2.21,1.29,0-2.12,3L29,162.54H27.65l-1.56-2.35-1.51,2.35H23.25l2.21-3.21Z" transform="translate(0 0)"/><path d="M39.52,154.56a3.12,3.12,0,0,1,1,2H39.37a2.39,2.39,0,0,0-.76-1.32,2.36,2.36,0,0,0-1.59-.49,2.51,2.51,0,0,0-2,.9,4.09,4.09,0,0,0-.77,2.74,4,4,0,0,0,.69,2.45,2.4,2.4,0,0,0,2.07.95,2.17,2.17,0,0,0,1.93-1,3.83,3.83,0,0,0,.52-1.38h1.14a3.85,3.85,0,0,1-1,2.28,3.5,3.5,0,0,1-2.73,1.11,3.56,3.56,0,0,1-2.49-.91A5.62,5.62,0,0,1,34,155a3.61,3.61,0,0,1,3-1.33A3.49,3.49,0,0,1,39.52,154.56Z" transform="translate(0 0)"/><path d="M46.5,156.89a3.15,3.15,0,0,1,.83,2.38,4.1,4.1,0,0,1-.73,2.51,2.65,2.65,0,0,1-2.27,1,2.6,2.6,0,0,1-2-.88,3.49,3.49,0,0,1-.75-2.35,3.78,3.78,0,0,1,.79-2.52,2.7,2.7,0,0,1,2.15-.93A2.82,2.82,0,0,1,46.5,156.89Zm-.65,4.17a4,4,0,0,0,.38-1.76,3.11,3.11,0,0,0-.28-1.43,1.55,1.55,0,0,0-1.51-.86,1.49,1.49,0,0,0-1.39.73,3.45,3.45,0,0,0-.44,1.78,3,3,0,0,0,.44,1.67,1.5,1.5,0,0,0,1.37.67A1.44,1.44,0,0,0,45.85,161.06Z" transform="translate(0 0)"/><path d="M48.66,153.94h1.05v8.6H48.66Z" transform="translate(0 0)"/><path d="M52.35,156.27v4.16a1.79,1.79,0,0,0,.15.79,1,1,0,0,0,1,.56,1.45,1.45,0,0,0,1.46-1,4,4,0,0,0,.21-1.45v-3.08h1.06v6.27h-1v-.92a2,2,0,0,1-.5.6,2.15,2.15,0,0,1-1.44.49,1.86,1.86,0,0,1-1.79-.89,2.76,2.76,0,0,1-.26-1.29v-4.26Z" transform="translate(0 0)"/><path d="M58,156.27h1v.89a3.6,3.6,0,0,1,.68-.68,2.11,2.11,0,0,1,1.19-.35,1.81,1.81,0,0,1,1.2.37,1.87,1.87,0,0,1,.47.62,2.26,2.26,0,0,1,.83-.75,2.3,2.3,0,0,1,1.06-.24,1.75,1.75,0,0,1,1.73.91,3.07,3.07,0,0,1,.24,1.33v4.17H65.32v-4.36a1,1,0,0,0-.32-.86,1.27,1.27,0,0,0-.76-.23,1.54,1.54,0,0,0-1.07.41,1.83,1.83,0,0,0-.45,1.39v3.65H61.65v-4.09a2.12,2.12,0,0,0-.15-.93.92.92,0,0,0-.9-.44,1.55,1.55,0,0,0-1.09.46,2.3,2.3,0,0,0-.49,1.67v3.33H58Z" transform="translate(0 0)"/><path d="M68,156.27h1v.89a2.72,2.72,0,0,1,.94-.79,2.51,2.51,0,0,1,1.11-.24,1.82,1.82,0,0,1,1.8.93,3.32,3.32,0,0,1,.26,1.46v4H72v-3.95a2.24,2.24,0,0,0-.17-.93,1,1,0,0,0-1-.58,2.16,2.16,0,0,0-.62.07,1.72,1.72,0,0,0-1.1,1.16,4.52,4.52,0,0,0-.08.95v3.28H68Z" transform="translate(0 0)"/><path d="M14.12,294.41h1.32l3.12,8.6H17.28l-.87-2.58H13L12.07,303H10.88ZM16,299.49l-1.3-3.81-1.39,3.81Z" transform="translate(0 0)"/><path d="M22.93,296.93a2.76,2.76,0,0,1,.63.62v-3.17h1V303h-.95v-.87a2.31,2.31,0,0,1-.87.84,2.53,2.53,0,0,1-1.15.26,2.32,2.32,0,0,1-1.81-.89A3.44,3.44,0,0,1,19,300a4.1,4.1,0,0,1,.7-2.38,2.52,2.52,0,0,1,3.2-.7Zm-2.36,4.71a1.51,1.51,0,0,0,1.37.68,1.45,1.45,0,0,0,1.2-.63,3,3,0,0,0,.46-1.81,2.68,2.68,0,0,0-.48-1.76,1.5,1.5,0,0,0-1.19-.57,1.57,1.57,0,0,0-1.29.61,2.77,2.77,0,0,0-.49,1.79A3.19,3.19,0,0,0,20.57,301.64Z" transform="translate(0 0)"/><path d="M29.6,296.93a2.77,2.77,0,0,1,.64.62v-3.17h1V303H30.3v-.87a2.18,2.18,0,0,1-.87.84,2.5,2.5,0,0,1-1.15.26,2.34,2.34,0,0,1-1.81-.89,3.43,3.43,0,0,1-.76-2.34,4,4,0,0,1,.7-2.38,2.26,2.26,0,0,1,2-1A2.23,2.23,0,0,1,29.6,296.93Zm-2.35,4.71a1.49,1.49,0,0,0,1.36.68,1.43,1.43,0,0,0,1.2-.63,3,3,0,0,0,.47-1.81,2.62,2.62,0,0,0-.49-1.76,1.5,1.5,0,0,0-1.19-.57,1.57,1.57,0,0,0-1.29.61,2.83,2.83,0,0,0-.49,1.79A3.1,3.1,0,0,0,27.25,301.64Z" transform="translate(0 0)"/><path d="M36.44,294.41h3.91a3.89,3.89,0,0,1,1.6.28,2.05,2.05,0,0,1,1.19,2,2.31,2.31,0,0,1-.32,1.26,2.29,2.29,0,0,1-.89.79,1.86,1.86,0,0,1,.76.54,2,2,0,0,1,.28,1.09l0,1.15a3.62,3.62,0,0,0,.08.73.72.72,0,0,0,.38.53V303H42a1.28,1.28,0,0,1-.1-.28,5.79,5.79,0,0,1,0-.68l-.07-1.44a1.22,1.22,0,0,0-.61-1.13,2.4,2.4,0,0,0-1-.16H37.61V303H36.44Zm3.79,3.94a2.14,2.14,0,0,0,1.26-.33,1.35,1.35,0,0,0,.47-1.18,1.29,1.29,0,0,0-.65-1.26,2.21,2.21,0,0,0-.93-.17H37.61v2.94Z" transform="translate(0 0)"/><path d="M49.37,297.36a3.15,3.15,0,0,1,.84,2.38,4.11,4.11,0,0,1-.74,2.51,2.63,2.63,0,0,1-2.27,1,2.56,2.56,0,0,1-2-.88A3.44,3.44,0,0,1,44.4,300a3.79,3.79,0,0,1,.8-2.52,2.67,2.67,0,0,1,2.14-.93A2.82,2.82,0,0,1,49.37,297.36Zm-.65,4.17a3.89,3.89,0,0,0,.38-1.76,3.26,3.26,0,0,0-.27-1.43,1.56,1.56,0,0,0-1.52-.86,1.49,1.49,0,0,0-1.39.73,3.48,3.48,0,0,0-.44,1.78,3,3,0,0,0,.44,1.67,1.52,1.52,0,0,0,1.38.67A1.44,1.44,0,0,0,48.72,301.53Z" transform="translate(0 0)"/><path d="M52.56,296.74v4.16a1.8,1.8,0,0,0,.14.79,1.05,1.05,0,0,0,1,.56,1.45,1.45,0,0,0,1.46-1,4,4,0,0,0,.21-1.45v-3.08h1.05V303h-1v-.92a2.11,2.11,0,0,1-.5.6,2.19,2.19,0,0,1-1.44.49,1.84,1.84,0,0,1-1.79-.89,2.64,2.64,0,0,1-.26-1.29v-4.26Z" transform="translate(0 0)"/><path d="M58.17,296.74h1v.89a2.72,2.72,0,0,1,.94-.79,2.51,2.51,0,0,1,1.11-.24,1.82,1.82,0,0,1,1.8.93,3.32,3.32,0,0,1,.26,1.46v4H62.22v-3.95a2.21,2.21,0,0,0-.17-.93,1,1,0,0,0-1-.58,2.16,2.16,0,0,0-.62.07,1.6,1.6,0,0,0-.76.52,1.54,1.54,0,0,0-.34.64,4.52,4.52,0,0,0-.08,1V303H58.17Z" transform="translate(0 0)"/><path d="M68.3,296.93a2.76,2.76,0,0,1,.63.62v-3.17h1V303H69v-.87a2.31,2.31,0,0,1-.87.84,2.53,2.53,0,0,1-1.15.26,2.32,2.32,0,0,1-1.81-.89A3.44,3.44,0,0,1,64.4,300a4.1,4.1,0,0,1,.7-2.38,2.52,2.52,0,0,1,3.2-.7Zm-2.36,4.71a1.51,1.51,0,0,0,1.37.68,1.42,1.42,0,0,0,1.19-.63,3,3,0,0,0,.47-1.81,2.68,2.68,0,0,0-.48-1.76,1.51,1.51,0,0,0-1.2-.57,1.57,1.57,0,0,0-1.28.61,2.77,2.77,0,0,0-.49,1.79A3.19,3.19,0,0,0,65.94,301.64Z" transform="translate(0 0)"/><path d="M75,294.41h1.13v4.21l4.31-4.21h1.63l-3.68,3.47L82.15,303H80.62l-3.08-4.32L76.13,300v3H75Z" transform="translate(0 0)"/><path d="M86.74,296.91a2.46,2.46,0,0,1,1,.81,2.69,2.69,0,0,1,.41,1.11,6.56,6.56,0,0,1,.1,1.38H83.63a2.73,2.73,0,0,0,.45,1.54,1.51,1.51,0,0,0,1.3.58,1.7,1.7,0,0,0,1.31-.55,1.8,1.8,0,0,0,.38-.74h1a2.3,2.3,0,0,1-.27.77,2.83,2.83,0,0,1-.52.7,2.46,2.46,0,0,1-1.18.63,3.67,3.67,0,0,1-.85.1,2.63,2.63,0,0,1-2-.86A3.32,3.32,0,0,1,82.5,300a3.6,3.6,0,0,1,.82-2.46,2.66,2.66,0,0,1,2.13-.94A2.85,2.85,0,0,1,86.74,296.91Zm.37,2.46a2.78,2.78,0,0,0-.29-1.09,1.52,1.52,0,0,0-1.44-.76,1.59,1.59,0,0,0-1.21.52,2,2,0,0,0-.51,1.33Z" transform="translate(0 0)"/><path d="M93.46,296.74h1.16c-.15.4-.48,1.32-1,2.75q-.57,1.62-1,2.64a17.86,17.86,0,0,1-1.29,2.93,1.46,1.46,0,0,1-1.28.52h-.35l-.29-.07v-1l.4.1h.21a.79.79,0,0,0,.43-.09,1,1,0,0,0,.23-.24s.09-.19.21-.48l.27-.64-2.32-6.46h1.19l1.68,5.11Z" transform="translate(0 0)"/><rect class="e" x="194.42" y="24.42" width="12" height="12"/><path d="M198.61,32.24a2.69,2.69,0,0,0,1.39.42c.77,0,1.13-.38,1.13-.86s-.3-.78-1.08-1.07c-1.05-.37-1.54-.95-1.54-1.64a1.79,1.79,0,0,1,2-1.7,2.79,2.79,0,0,1,1.42.36l-.26.76a2.32,2.32,0,0,0-1.19-.33c-.62,0-1,.36-1,.79s.35.69,1.1,1c1,.39,1.53.89,1.53,1.75,0,1-.8,1.74-2.17,1.74a3.34,3.34,0,0,1-1.64-.39Z" transform="translate(0 0)"/><rect class="e" x="212.5" y="24.52" width="12" height="12"/><path d="M216.69,32.34a2.79,2.79,0,0,0,1.39.42c.76,0,1.12-.38,1.12-.86s-.3-.78-1.08-1.07c-1-.37-1.53-.95-1.53-1.64a1.79,1.79,0,0,1,2-1.71,2.91,2.91,0,0,1,1.43.36l-.26.77a2.31,2.31,0,0,0-1.19-.34c-.63,0-1,.36-1,.8s.34.69,1.1,1c1,.38,1.52.89,1.52,1.75,0,1-.79,1.74-2.17,1.74a3.33,3.33,0,0,1-1.63-.4Z" transform="translate(0 0)"/><rect class="e" x="230.53" y="24.42" width="12" height="12"/><path d="M234.71,32.24a2.75,2.75,0,0,0,1.39.42c.77,0,1.13-.38,1.13-.86s-.3-.78-1.08-1.07c-1-.37-1.53-.95-1.53-1.64a1.78,1.78,0,0,1,2-1.7,2.83,2.83,0,0,1,1.43.36l-.27.76a2.25,2.25,0,0,0-1.18-.33c-.63,0-1,.36-1,.79s.35.69,1.11,1c1,.39,1.52.89,1.52,1.75,0,1-.79,1.74-2.17,1.74a3.33,3.33,0,0,1-1.63-.39Z" transform="translate(0 0)"/><rect class="e" x="248.53" y="24.52" width="12" height="12"/><path d="M252.71,32.34a2.85,2.85,0,0,0,1.39.42c.77,0,1.13-.38,1.13-.86s-.3-.78-1.08-1.07c-1-.37-1.53-.95-1.53-1.64a1.79,1.79,0,0,1,2-1.71,2.94,2.94,0,0,1,1.43.36l-.27.77a2.24,2.24,0,0,0-1.18-.34c-.63,0-1,.36-1,.8s.35.69,1.11,1c1,.38,1.52.89,1.52,1.75,0,1-.79,1.74-2.17,1.74a3.33,3.33,0,0,1-1.63-.4Z" transform="translate(0 0)"/><rect class="e" x="96.7" y="24.42" width="12" height="12"/><path d="M100.88,32.24a2.72,2.72,0,0,0,1.39.42c.77,0,1.13-.38,1.13-.86s-.3-.78-1.08-1.07c-1-.37-1.53-.95-1.53-1.64a1.78,1.78,0,0,1,2-1.7,2.83,2.83,0,0,1,1.43.36l-.27.76a2.32,2.32,0,0,0-1.19-.33c-.62,0-1,.36-1,.79s.35.69,1.11,1c1,.39,1.52.89,1.52,1.75,0,1-.79,1.74-2.17,1.74a3.3,3.3,0,0,1-1.63-.39Z" transform="translate(0 0)"/><rect class="e" x="114.77" y="24.52" width="12" height="12"/><path d="M119,32.34a2.79,2.79,0,0,0,1.39.42c.77,0,1.13-.38,1.13-.86s-.3-.78-1.08-1.07c-1.05-.37-1.54-.95-1.54-1.64a1.8,1.8,0,0,1,2-1.71,2.9,2.9,0,0,1,1.42.36l-.26.77a2.31,2.31,0,0,0-1.19-.34c-.62,0-1,.36-1,.8s.35.69,1.1,1c1,.38,1.53.89,1.53,1.75,0,1-.8,1.74-2.17,1.74a3.34,3.34,0,0,1-1.64-.4Z" transform="translate(0 0)"/><rect class="e" x="132.8" y="24.42" width="12" height="12"/><path d="M137,32.24a2.69,2.69,0,0,0,1.39.42c.77,0,1.12-.38,1.12-.86s-.29-.78-1.07-1.07c-1.05-.37-1.54-.95-1.54-1.64a1.79,1.79,0,0,1,2-1.7,2.81,2.81,0,0,1,1.43.36l-.26.76a2.32,2.32,0,0,0-1.19-.33c-.62,0-1,.36-1,.79s.35.69,1.1,1c1,.39,1.52.89,1.52,1.75,0,1-.79,1.74-2.17,1.74a3.33,3.33,0,0,1-1.63-.39Z" transform="translate(0 0)"/><rect class="e" x="150.8" y="24.52" width="12" height="12"/><path d="M155,32.34a2.79,2.79,0,0,0,1.39.42c.77,0,1.12-.38,1.12-.86s-.29-.78-1.07-1.07c-1.05-.37-1.54-.95-1.54-1.64a1.79,1.79,0,0,1,2-1.71,2.91,2.91,0,0,1,1.43.36l-.26.77a2.31,2.31,0,0,0-1.19-.34c-.62,0-1,.36-1,.8s.35.69,1.1,1c1,.38,1.52.89,1.52,1.75,0,1-.79,1.74-2.17,1.74a3.33,3.33,0,0,1-1.63-.4Z" transform="translate(0 0)"/><rect class="e" x="292.78" y="24.42" width="12" height="12"/><path d="M297,32.24a2.69,2.69,0,0,0,1.39.42c.77,0,1.13-.38,1.13-.86s-.3-.78-1.08-1.07c-1.05-.37-1.54-.95-1.54-1.64a1.79,1.79,0,0,1,2-1.7,2.81,2.81,0,0,1,1.43.36l-.26.76a2.32,2.32,0,0,0-1.19-.33c-.62,0-1,.36-1,.79s.35.69,1.1,1c1,.39,1.52.89,1.52,1.75,0,1-.79,1.74-2.17,1.74a3.33,3.33,0,0,1-1.63-.39Z" transform="translate(0 0)"/><rect class="e" x="310.86" y="24.52" width="12" height="12"/><path d="M315,32.34a2.86,2.86,0,0,0,1.4.42c.76,0,1.12-.38,1.12-.86s-.3-.78-1.08-1.07c-1-.37-1.53-.95-1.53-1.64a1.79,1.79,0,0,1,2-1.71,2.94,2.94,0,0,1,1.43.36l-.27.77a2.24,2.24,0,0,0-1.18-.34c-.63,0-1,.36-1,.8s.34.69,1.1,1c1,.38,1.52.89,1.52,1.75,0,1-.79,1.74-2.17,1.74a3.33,3.33,0,0,1-1.63-.4Z" transform="translate(0 0)"/><rect class="e" x="328.89" y="24.42" width="12" height="12"/><path d="M333.07,32.24a2.72,2.72,0,0,0,1.39.42c.77,0,1.13-.38,1.13-.86s-.3-.78-1.08-1.07c-1-.37-1.53-.95-1.53-1.64a1.78,1.78,0,0,1,2-1.7,2.83,2.83,0,0,1,1.43.36l-.27.76a2.25,2.25,0,0,0-1.18-.33c-.63,0-1,.36-1,.79s.35.69,1.11,1c1,.39,1.52.89,1.52,1.75,0,1-.79,1.74-2.17,1.74a3.3,3.3,0,0,1-1.63-.39Z" transform="translate(0 0)"/><rect class="e" x="346.89" y="24.52" width="12" height="12"/><path d="M351.07,32.34a2.82,2.82,0,0,0,1.39.42c.77,0,1.13-.38,1.13-.86s-.3-.78-1.08-1.07c-1-.37-1.53-.95-1.53-1.64a1.79,1.79,0,0,1,2-1.71,2.94,2.94,0,0,1,1.43.36l-.27.77a2.24,2.24,0,0,0-1.18-.34c-.63,0-1,.36-1,.8s.35.69,1.11,1c1,.38,1.52.89,1.52,1.75,0,1-.79,1.74-2.17,1.74a3.3,3.3,0,0,1-1.63-.4Z" transform="translate(0 0)"/><rect class="e" x="390.78" y="24.42" width="12" height="12"/><path d="M395,32.24a2.69,2.69,0,0,0,1.39.42c.77,0,1.13-.38,1.13-.86s-.3-.78-1.08-1.07c-1-.37-1.53-.95-1.53-1.64a1.78,1.78,0,0,1,2-1.7,2.77,2.77,0,0,1,1.42.36l-.26.76a2.32,2.32,0,0,0-1.19-.33c-.62,0-1,.36-1,.79s.35.69,1.11,1c1,.39,1.52.89,1.52,1.75,0,1-.79,1.74-2.17,1.74a3.27,3.27,0,0,1-1.63-.39Z" transform="translate(0 0)"/><rect class="e" x="408.85" y="24.52" width="12" height="12"/><path d="M413,32.34a2.79,2.79,0,0,0,1.39.42c.77,0,1.13-.38,1.13-.86s-.3-.78-1.08-1.07c-1.05-.37-1.54-.95-1.54-1.64a1.8,1.8,0,0,1,2-1.71,2.9,2.9,0,0,1,1.42.36l-.26.77a2.31,2.31,0,0,0-1.19-.34c-.62,0-1,.36-1,.8s.35.69,1.1,1c1,.38,1.53.89,1.53,1.75,0,1-.8,1.74-2.17,1.74a3.34,3.34,0,0,1-1.64-.4Z" transform="translate(0 0)"/><rect class="e" x="426.88" y="24.42" width="12" height="12"/><path d="M431.07,32.24a2.69,2.69,0,0,0,1.39.42c.76,0,1.12-.38,1.12-.86s-.3-.78-1.08-1.07c-1-.37-1.53-.95-1.53-1.64a1.79,1.79,0,0,1,2-1.7,2.81,2.81,0,0,1,1.43.36l-.26.76a2.32,2.32,0,0,0-1.19-.33c-.62,0-1,.36-1,.79s.35.69,1.1,1c1,.39,1.52.89,1.52,1.75,0,1-.79,1.74-2.17,1.74a3.33,3.33,0,0,1-1.63-.39Z" transform="translate(0 0)"/><rect class="e" x="444.88" y="24.52" width="12" height="12"/><path d="M449.07,32.34a2.79,2.79,0,0,0,1.39.42c.76,0,1.12-.38,1.12-.86s-.3-.78-1.08-1.07c-1-.37-1.53-.95-1.53-1.64a1.79,1.79,0,0,1,2-1.71,2.91,2.91,0,0,1,1.43.36l-.26.77a2.31,2.31,0,0,0-1.19-.34c-.62,0-1,.36-1,.8s.35.69,1.1,1c1,.38,1.52.89,1.52,1.75,0,1-.79,1.74-2.17,1.74a3.33,3.33,0,0,1-1.63-.4Z" transform="translate(0 0)"/><path class="b" d="M128.74,302.46" transform="translate(0 0)"/><path class="b" d="M132.57,299" transform="translate(0 0)"/><path class="b" d="M129.14,302.43" transform="translate(0 0)"/><path class="b" d="M132.58,298.55" transform="translate(0 0)"/><circle class="f" cx="129.41" cy="301.5" r="6.37"/><line class="b" x1="126.04" y1="298.85" x2="130.04" y2="302.26"/><line class="b" x1="132.77" y1="298.85" x2="128.77" y2="302.26"/><line class="b" x1="125.08" y1="303.56" x2="133.62" y2="303.56"/><circle class="f" cx="240.61" cy="301.5" r="6.37"/><line class="b" x1="237.25" y1="298.85" x2="241.25" y2="302.26"/><line class="b" x1="243.97" y1="298.85" x2="239.98" y2="302.26"/><line class="b" x1="236.29" y1="303.56" x2="244.83" y2="303.56"/><circle class="f" cx="351.63" cy="301.5" r="6.37"/><line class="b" x1="348.27" y1="298.85" x2="352.26" y2="302.26"/><line class="b" x1="354.99" y1="298.85" x2="350.99" y2="302.26"/><line class="b" x1="347.3" y1="303.56" x2="355.84" y2="303.56"/><circle class="f" cx="462.69" cy="301.5" r="6.37"/><line class="b" x1="459.33" y1="298.85" x2="463.33" y2="302.26"/><line class="b" x1="466.06" y1="298.85" x2="462.06" y2="302.26"/><line class="b" x1="458.37" y1="303.56" x2="466.91" y2="303.56"/><rect class="g" x="157.22" y="105.17" width="11.54" height="7.69" transform="translate(-29.35 147.18) rotate(-45)"/><rect class="g" x="144.24" y="118.15" width="11.54" height="7.69" transform="translate(-42.32 141.8) rotate(-45)"/><rect class="g" x="131.25" y="131.14" width="11.54" height="7.69" transform="translate(-55.32 136.42) rotate(-45)"/><rect class="g" x="118.25" y="144.14" width="11.54" height="7.69" transform="translate(-68.31 131.04) rotate(-45)"/><rect class="g" x="174.33" y="122.43" width="11.54" height="7.69" transform="translate(-36.54 164.33) rotate(-45)"/><rect class="g" x="161.35" y="135.4" width="11.54" height="7.69" transform="translate(-49.52 158.95) rotate(-45)"/><rect class="g" x="148.35" y="148.4" width="11.54" height="7.69" transform="translate(-62.51 153.57) rotate(-45)"/><rect class="g" x="135.36" y="161.39" width="11.54" height="7.69" transform="translate(-75.51 148.19) rotate(-45)"/><rect class="g" x="191.34" y="139.22" width="11.54" height="7.69" transform="translate(-43.43 181.28) rotate(-45)"/><rect class="g" x="178.36" y="152.19" width="11.54" height="7.69" transform="translate(-56.4 175.9) rotate(-45)"/><rect class="g" x="165.37" y="165.19" width="11.54" height="7.69" transform="translate(-69.4 170.52) rotate(-45)"/><rect class="g" x="152.37" y="178.18" width="11.54" height="7.69" transform="translate(-82.39 165.14) rotate(-45)"/><rect class="g" x="208.25" y="156.29" width="11.54" height="7.69" transform="translate(-50.55 198.23) rotate(-45)"/><rect class="g" x="195.27" y="169.27" width="11.54" height="7.69" transform="translate(-63.53 192.86) rotate(-45)"/><rect class="g" x="182.27" y="182.26" width="11.54" height="7.69" transform="translate(-76.52 187.47) rotate(-45)"/><rect class="g" x="169.28" y="195.26" width="11.54" height="7.69" transform="translate(-89.52 182.09) rotate(-45)"/><circle class="f" cx="130.97" cy="155.55" r="3.31"/><circle class="f" cx="144.44" cy="142.56" r="3.31"/><circle class="f" cx="157.43" cy="129.58" r="3.31"/><circle class="f" cx="148.16" cy="172.5" r="3.31"/><circle class="f" cx="161.63" cy="159.5" r="3.31"/><circle class="f" cx="174.62" cy="146.53" r="3.31"/><circle class="f" cx="164.85" cy="189.42" r="3.31"/><circle class="f" cx="178.32" cy="176.42" r="3.31"/><circle class="f" cx="191.31" cy="163.44" r="3.31"/><circle class="f" cx="182.17" cy="206.51" r="3.31"/><circle class="f" cx="195.64" cy="193.51" r="3.31"/><circle class="f" cx="208.63" cy="180.54" r="3.31"/><rect class="g" x="268.29" y="117.2" width="11.54" height="7.69" transform="translate(-5.32 229.24) rotate(-45)"/><rect class="g" x="255.31" y="130.17" width="11.54" height="7.69" transform="translate(-18.3 223.86) rotate(-45)"/><rect class="g" x="242.31" y="143.17" width="11.54" height="7.69" transform="translate(-31.29 218.48) rotate(-45)"/><rect class="g" x="229.32" y="156.16" width="11.54" height="7.69" transform="translate(-44.29 213.1) rotate(-45)"/><rect class="g" x="285.39" y="134.45" width="11.54" height="7.69" transform="translate(-12.51 246.39) rotate(-45)"/><rect class="g" x="272.41" y="147.43" width="11.54" height="7.69" transform="translate(-25.49 241.01) rotate(-45)"/><rect class="g" x="259.42" y="160.43" width="11.54" height="7.69" transform="translate(-38.48 235.63) rotate(-45)"/><rect class="g" x="246.42" y="173.42" width="11.54" height="7.69" transform="translate(-51.48 230.25) rotate(-45)"/><rect class="g" x="302.41" y="151.24" width="11.54" height="7.69" transform="translate(-19.4 263.34) rotate(-45)"/><rect class="g" x="289.43" y="164.22" width="11.54" height="7.69" transform="translate(-32.38 257.96) rotate(-45)"/><rect class="g" x="276.43" y="177.21" width="11.54" height="7.69" transform="translate(-45.37 252.58) rotate(-45)"/><rect class="g" x="263.44" y="190.21" width="11.54" height="7.69" transform="translate(-58.37 247.19) rotate(-45)"/><rect class="g" x="319.31" y="168.32" width="11.54" height="7.69" transform="translate(-26.52 280.29) rotate(-45)"/><rect class="g" x="306.33" y="181.29" width="11.54" height="7.69" transform="translate(-39.5 274.91) rotate(-45)"/><rect class="g" x="293.34" y="194.29" width="11.54" height="7.69" transform="translate(-52.49 269.53) rotate(-45)"/><rect class="g" x="280.34" y="207.28" width="11.54" height="7.69" transform="translate(-65.49 264.15) rotate(-45)"/><circle class="f" cx="242.03" cy="167.58" r="3.31"/><circle class="f" cx="255.5" cy="154.58" r="3.31"/><circle class="f" cx="268.5" cy="141.61" r="3.31"/><circle class="f" cx="259.22" cy="184.52" r="3.31"/><circle class="f" cx="272.69" cy="171.53" r="3.31"/><circle class="f" cx="285.69" cy="158.55" r="3.31"/><circle class="f" cx="275.92" cy="201.44" r="3.31"/><circle class="f" cx="289.39" cy="188.45" r="3.31"/><circle class="f" cx="302.38" cy="175.47" r="3.31"/><circle class="f" cx="293.23" cy="218.53" r="3.31"/><circle class="f" cx="306.7" cy="205.54" r="3.31"/><circle class="f" cx="319.7" cy="192.56" r="3.31"/><rect class="g" x="379.2" y="129.37" width="11.54" height="7.69" transform="translate(18.56 311.23) rotate(-45)"/><rect class="g" x="366.23" y="142.34" width="11.54" height="7.69" transform="translate(5.58 305.86) rotate(-45)"/><rect class="g" x="353.23" y="155.34" width="11.54" height="7.69" transform="translate(-7.41 300.47) rotate(-45)"/><rect class="g" x="340.24" y="168.33" width="11.54" height="7.69" transform="translate(-20.41 295.09) rotate(-45)"/><rect class="g" x="396.31" y="146.62" width="11.54" height="7.69" transform="translate(11.37 328.38) rotate(-45)"/><rect class="g" x="383.33" y="159.6" width="11.54" height="7.69" transform="translate(-1.61 323.01) rotate(-45)"/><rect class="g" x="370.34" y="172.6" width="11.54" height="7.69" transform="translate(-14.6 317.62) rotate(-45)"/><rect class="g" x="357.34" y="185.59" width="11.54" height="7.69" transform="translate(-27.6 312.24) rotate(-45)"/><rect class="g" x="413.32" y="163.41" width="11.54" height="7.69" transform="translate(4.48 345.33) rotate(-45)"/><rect class="g" x="400.35" y="176.39" width="11.54" height="7.69" transform="translate(-8.5 339.96) rotate(-45)"/><rect class="g" x="387.35" y="189.39" width="11.54" height="7.69" transform="translate(-21.49 334.57) rotate(-45)"/><rect class="g" x="374.36" y="202.38" width="11.54" height="7.69" transform="translate(-34.49 329.19) rotate(-45)"/><rect class="g" x="430.23" y="180.49" width="11.54" height="7.69" transform="translate(-2.64 362.29) rotate(-45)"/><rect class="g" x="417.25" y="193.47" width="11.54" height="7.69" transform="translate(-15.62 356.91) rotate(-45)"/><rect class="g" x="404.25" y="206.46" width="11.54" height="7.69" transform="translate(-28.61 351.53) rotate(-45)"/><rect class="g" x="391.26" y="219.46" width="11.54" height="7.69" transform="translate(-41.61 346.14) rotate(-45)"/><circle class="f" cx="352.95" cy="179.75" r="3.31"/><circle class="f" cx="366.42" cy="166.75" r="3.31"/><circle class="f" cx="379.41" cy="153.78" r="3.31"/><circle class="f" cx="370.14" cy="196.7" r="3.31"/><circle class="f" cx="383.61" cy="183.7" r="3.31"/><circle class="f" cx="396.6" cy="170.72" r="3.31"/><circle class="f" cx="386.84" cy="213.61" r="3.31"/><circle class="f" cx="400.3" cy="200.62" r="3.31"/><circle class="f" cx="413.3" cy="187.64" r="3.31"/><circle class="f" cx="404.15" cy="230.71" r="3.31"/><circle class="f" cx="417.62" cy="217.71" r="3.31"/><circle class="f" cx="430.61" cy="204.73" r="3.31"/><rect class="g" x="490.2" y="141.15" width="11.54" height="7.69" transform="translate(42.74 393.17) rotate(-45)"/><rect class="g" x="477.23" y="154.13" width="11.54" height="7.69" transform="translate(29.76 387.8) rotate(-45)"/><rect class="g" x="464.23" y="167.13" width="11.54" height="7.69" transform="translate(16.77 382.41) rotate(-45)"/><rect class="g" x="451.24" y="180.12" width="11.54" height="7.69" transform="translate(3.77 377.03) rotate(-45)"/><rect class="g" x="507.31" y="158.41" width="11.54" height="7.69" transform="translate(35.55 410.32) rotate(-45)"/><rect class="g" x="494.33" y="171.39" width="11.54" height="7.69" transform="translate(22.57 404.95) rotate(-45)"/><rect class="g" x="481.34" y="184.38" width="11.54" height="7.69" transform="translate(9.57 399.56) rotate(-45)"/><rect class="g" x="468.34" y="197.38" width="11.54" height="7.69" transform="translate(-3.42 394.18) rotate(-45)"/><rect class="g" x="524.32" y="175.2" width="11.54" height="7.69" transform="translate(28.66 427.27) rotate(-45)"/><rect class="g" x="511.35" y="188.18" width="11.54" height="7.69" transform="translate(15.68 421.9) rotate(-45)"/><rect class="g" x="498.35" y="201.17" width="11.54" height="7.69" transform="translate(2.69 416.51) rotate(-45)"/><rect class="g" x="485.36" y="214.17" width="11.54" height="7.69" transform="translate(-10.31 411.13) rotate(-45)"/><rect class="g" x="541.23" y="192.27" width="11.54" height="7.69" transform="translate(21.54 444.23) rotate(-45)"/><rect class="g" x="528.25" y="205.25" width="11.54" height="7.69" transform="translate(8.56 438.85) rotate(-45)"/><rect class="g" x="515.25" y="218.25" width="11.54" height="7.69" transform="translate(-4.44 433.47) rotate(-45)"/><rect class="g" x="502.26" y="231.24" width="11.54" height="7.69" transform="translate(-17.43 428.08) rotate(-45)"/><circle class="f" cx="463.95" cy="191.54" r="3.31"/><circle class="f" cx="477.42" cy="178.54" r="3.31"/><circle class="f" cx="490.41" cy="165.56" r="3.31"/><circle class="f" cx="481.14" cy="208.48" r="3.31"/><circle class="f" cx="494.61" cy="195.49" r="3.31"/><circle class="f" cx="507.6" cy="182.51" r="3.31"/><circle class="f" cx="497.84" cy="225.4" r="3.31"/><circle class="f" cx="511.3" cy="212.4" r="3.31"/><circle class="f" cx="524.3" cy="199.43" r="3.31"/><circle class="f" cx="515.15" cy="242.49" r="3.31"/><circle class="f" cx="528.62" cy="229.49" r="3.31"/><circle class="f" cx="541.61" cy="216.52" r="3.31"/><rect class="h" x="95.1" y="322" width="14.41" height="5.43"/><rect class="h" x="113.63" y="322" width="14.41" height="5.43"/><rect class="h" x="131.34" y="322" width="14.41" height="5.43"/><rect class="h" x="149.1" y="322" width="14.41" height="5.43"/><rect class="h" x="206.04" y="322" width="14.41" height="5.43"/><rect class="h" x="224.58" y="322" width="14.41" height="5.43"/><rect class="h" x="242.28" y="322" width="14.41" height="5.43"/><rect class="h" x="260.05" y="322" width="14.41" height="5.43"/><rect class="h" x="317.04" y="322" width="14.41" height="5.43"/><rect class="h" x="335.58" y="322" width="14.41" height="5.43"/><rect class="h" x="353.28" y="322" width="14.41" height="5.43"/><rect class="h" x="371.05" y="322" width="14.41" height="5.43"/><rect class="h" x="428.04" y="322" width="14.41" height="5.43"/><rect class="h" x="446.58" y="322" width="14.41" height="5.43"/><rect class="h" x="464.28" y="322" width="14.41" height="5.43"/><rect class="h" x="482.05" y="322" width="14.41" height="5.43"/><line class="i" x1="74.48" y1="282.43" x2="294.18" y2="282.43"/><line class="i" x1="125.08" y1="288.5" x2="442.84" y2="288.5"/></svg>