<svg xmlns="http://www.w3.org/2000/svg" xmlns:xlink="http://www.w3.org/1999/xlink" height="200" width="600"><style>path,circle,rect{fill:none;stroke:black;}#a{overflow:visible;}.h{fill:black;stroke:none;}path.a{marker-end:url(#a);}text{font-size:12px;font-family:DejaVu Sans;text-align:center;text-anchor:middle;}path.a{marker-end:url(#a);}#t{font-size:16px;}@media(prefers-color-scheme:dark){path,circle,rect{stroke:white;}text,.h{fill:white;}}</style><defs><marker id="a" orient="auto"><path d="M0,0L-2,-2L6,0L-2,2z" class="h"/></marker><path id="b" d="M-40,0h80v8h-80Zm8,0v8m8,-8v8m8,-8v8m8,-8v8m8,-8v8m8,-8v8m8,-8v8m8,-8v8m8,-8v8"/><g id="c"><text y="20">Ciphertext</text><use xlink:href="#b" y="25"/><path d="M0,35v18" class="a"/><rect x="-40" y="60" width="80" height="32"/><text y="74">Block Cipher</text><text y="87">Decryption</text><path d="M-65,76h18" class="a"/><text x="-80" y="79">Key</text><path d="M0,94v14" class="a"/><path d="M-5,120h10zM0,115v10"/><circle cy="120" r="5"/><path d="M0,127v6" class="a"/><use xlink:href="#b" y="140"/><text y="160">Plaintext</text></g><path id="l" d="M0,45h60v75h108" class="a"/></defs><text x="300" y="185" id="t">Cipher Block Chaining (CBC) mode decryption</text><use xlink:href="#b" x="50" y="116"/><text x="50" y="98">Initialization</text><text x="50" y="110">Vector (IV)</text><path class="a" d="M92,120h36"/><use xlink:href="#c" x="140"/><use xlink:href="#l" x="140"/><use xlink:href="#c" x="320"/><use xlink:href="#l" x="320"/><use xlink:href="#c" x="500"/></svg>